<svg xmlns="http://www.w3.org/2000/svg" viewBox="0 0 310 43.86" width="310" height="43.86"><title>logo_sand</title><path d="M0,7.92l4.37,3.72v2.69L0,18.05V25.8l4.37,3.73v2.68L0,35.94v7.92H43.86V35.94l-4.37-3.73V29.53l4.37-3.73V18.05l-4.37-3.72V11.64l4.37-3.72V0H0ZM41.44,41.6h-39V37.7h39Zm-.93-5.82H3.34l2.57-2.12h32Zm-34.14-4v-1.9H37.49v1.9Zm31.57-3.74h-32L3.34,26H40.51Zm3.5-4.2h-39V20h39Zm-.93-6H3.34l2.57-2.12h32Zm-34.14-4V12H37.49v1.91Zm31.57-3.75h-32L3.34,8.08H40.51ZM2.42,2.26h39v3.9h-39Z"/><polygon points="80.15 3.07 76.18 3.07 71.75 9.35 71.75 3.07 68.39 3.07 68.39 20.27 71.75 20.27 71.75 14.71 73.09 12.86 76.98 20.27 80.7 20.27 75.21 9.91 80.15 3.07"/><polygon points="111.45 5.8 115.52 5.8 115.52 20.27 118.91 20.27 118.91 5.8 122.98 5.8 122.98 3.07 111.45 3.07 111.45 5.8"/><polygon points="148.22 5.8 152.28 5.8 152.28 20.27 155.68 20.27 155.68 5.8 159.74 5.8 159.74 3.07 148.22 3.07 148.22 5.8"/><polygon points="208.82 20.27 208.82 17.36 202.8 17.36 202.8 12.88 207.8 12.88 207.8 10.15 202.8 10.15 202.8 5.8 208.82 5.8 208.82 3.07 199.41 3.07 199.41 20.27 208.82 20.27"/><polygon points="183.83 3.07 183.8 3.07 181.99 15.15 179.55 3.07 176.1 3.07 179.96 20.27 183.86 20.27 185.88 8.01 187.97 20.27 192.06 20.27 195.92 3.07 192.62 3.07 190.08 15.63 187.84 3.07 183.83 3.07"/><polygon points="88.47 9.79 85.28 3.07 81.65 3.07 86.85 13.27 86.85 20.27 90.25 20.27 90.25 13.27 95.45 3.07 91.67 3.07 88.47 9.79"/><path d="M213.23,20.27h3.4V13.71h2.22l2.08,6.56h3.6L222.05,13c1.73-1,2.34-2.77,2.34-5,0-3.63-2.86-5-5.75-5h-5.41Zm5-9.29h-1.62V5.81h1.59c1.8,0,2.82.84,2.82,2.54S220,11,218.25,11Z"/><path d="M167.91,2.83C164,2.83,162,5,162,11.28v.78c0,6.34,2,8.45,5.95,8.45s6-2.11,6-8.45v-.78C173.87,5,171.82,2.83,167.91,2.83Zm2.22,9.23c0,4.79-.63,5.72-2.22,5.72s-2.22-.93-2.22-5.72v-.78c0-4.79.63-5.71,2.22-5.71s2.22.92,2.22,5.71Z"/><path d="M131.57,2.83c-3.9,0-5.95,2.12-5.95,8.45v.78c0,6.34,2,8.45,5.95,8.45s6-2.11,6-8.45v-.78C137.53,5,135.48,2.83,131.57,2.83Zm2.22,9.23c0,4.79-.63,5.72-2.22,5.72s-2.22-.93-2.22-5.72v-.78c0-4.79.63-5.71,2.22-5.71s2.22.92,2.22,5.71Z"/><path d="M103,2.83C99,2.83,97,5,97,11.28v.78c0,6.34,2,8.45,6,8.45s6-2.11,6-8.45v-.78C108.9,5,106.86,2.83,103,2.83Zm2.22,9.23c0,4.79-.63,5.72-2.22,5.72s-2.22-.93-2.22-5.72v-.78c0-4.79.63-5.71,2.22-5.71s2.22.92,2.22,5.71Z"/><path d="M304.29,2.79c-4,0-5.71,2.31-5.71,8.86s1.75,8.87,5.71,8.87S310,18.21,310,11.65,308.25,2.79,304.29,2.79Zm0,15.53c-2,0-2.28-2.23-2.28-6.67S302.33,5,304.29,5s2.28,2.23,2.28,6.66S306.25,18.32,304.29,18.32Z"/><path d="M283.69,20.28h5.88c4,0,5.71-2.41,5.71-8.63S293.53,3,289.57,3h-5.88V5.24h1.23V18.07h-1.23Zm5.88-2.21H288V5.24h1.58c1.95,0,2.28,2.21,2.28,6.41S291.52,18.07,289.57,18.07Z"/><path d="M243.05,9.73c-1.74-1.21-2.86-1.87-2.86-3.14A1.65,1.65,0,0,1,242,4.76c1.43,0,3,.54,3.34,4.49h2.13V3h-2.13V4.16a4.49,4.49,0,0,0-3.67-1.37c-2.53,0-4.64,1.35-4.64,4.43A4.24,4.24,0,0,0,239,10.9c2.84,2.1,5.7,3.61,5.7,5.39a1.94,1.94,0,0,1-2.2,2c-2.35,0-3.4-2.83-3.4-4.49h-2.13v6.46h2.13v-1.4a5,5,0,0,0,3.82,1.64c3,0,5-1.34,5-4.55C247.83,13.73,246.75,12.29,243.05,9.73Z"/><polygon points="274.8 3.03 274.8 5.24 276.02 5.24 276.02 13.32 272.21 3.03 267.17 3.03 267.17 5.24 268.23 5.24 268.23 18.07 267.17 18.07 267.17 20.28 271.92 20.28 271.92 18.07 270.85 18.07 270.85 7.01 275.82 20.28 278.72 20.28 278.72 5.24 279.95 5.24 279.95 3.03 274.8 3.03"/><path d="M250.29,18.07v2.21h4.92V18.07H254l.46-1.9h4.43l.52,1.9h-1.16v2.21H264V18.07h-1.13L258.36,3h-2.94l-4,15Zm4.69-4,1.58-6.62,1.78,6.62Z"/><polygon points="68.39 29.15 68.39 30.24 68.39 39.35 70.53 39.35 70.53 34.7 73.68 34.7 73.68 32.98 70.53 32.98 70.53 30.24 74.32 30.24 74.32 28.52 68.39 28.52 68.39 29.15"/><path d="M89.71,28.37c-2.46,0-3.75,1.33-3.75,5.32v.49c0,4,1.29,5.32,3.75,5.32s3.75-1.33,3.75-5.32v-.49C93.46,29.7,92.17,28.37,89.71,28.37Zm1.4,5.81c0,3-.4,3.6-1.4,3.6s-1.4-.58-1.4-3.6v-.49c0-3,.4-3.6,1.4-3.6s1.4.58,1.4,3.6Z"/><path d="M99.14,28.52H95.72V39.35h3.42c2.46,0,3.75-1.18,3.75-5.17v-.49C102.89,29.7,101.6,28.52,99.14,28.52Zm1.4,5.66c0,2.82-.55,3.48-1.55,3.48H97.86V30.21H99c1,0,1.55.66,1.55,3.48Z"/><path d="M80,28.37c-2.46,0-3.75,1.33-3.75,5.32v.49c0,4,1.29,5.32,3.75,5.32s3.75-1.33,3.75-5.32v-.49C83.72,29.7,82.43,28.37,80,28.37Zm1.4,5.81c0,3-.4,3.6-1.4,3.6s-1.4-.58-1.4-3.6v-.49c0-3,.4-3.6,1.4-3.6s1.4.58,1.4,3.6Z"/><polygon points="114.2 32.98 111.05 32.98 111.05 28.52 108.91 28.52 108.91 39.35 111.05 39.35 111.05 34.7 114.2 34.7 114.2 39.35 116.34 39.35 116.34 28.52 114.2 28.52 114.2 32.98"/><path d="M123.41,28.52h-2l-2.88,10.83h2.14l.56-2.26h3l.6,2.26h2.19l-2.87-10.83Zm-1.7,6.85,1-4.18,1.11,4.18Z"/><polygon points="208.25 30.24 210.81 30.24 210.81 39.35 212.95 39.35 212.95 30.24 215.51 30.24 215.51 28.52 208.25 28.52 208.25 30.24"/><polygon points="196.96 28.52 194.45 28.52 191.66 32.47 191.66 28.52 189.54 28.52 189.54 39.35 191.66 39.35 191.66 35.85 192.38 34.85 194.86 39.35 197.46 39.35 193.85 32.82 196.96 28.52"/><path d="M186.51,31.64c0-2.29-1.8-3.12-3.62-3.12h-3.41V39.35h2.14V35.22H183l1.31,4.13h2.27L185,34.77A3.26,3.26,0,0,0,186.51,31.64Zm-4.89,1.86V30.24h1c1.14,0,1.78.53,1.78,1.61a1.54,1.54,0,0,1-1.76,1.65Z"/><polygon points="199.6 29.15 199.6 30.24 199.6 37.52 199.6 39.35 201.74 39.35 205.53 39.35 205.53 37.52 201.74 37.52 201.74 34.7 204.89 34.7 204.89 32.98 201.74 32.98 201.74 30.24 205.53 30.24 205.53 28.52 199.6 28.52 199.6 29.15"/><path d="M173.43,28.52h-2L168.6,39.35h2.14l.57-2.26h3l.59,2.26h2.19l-2.87-10.83Zm-1.7,6.85,1-4.18,1.11,4.18Z"/><polygon points="164.41 28.52 163.37 28.52 161.41 35.64 159.58 28.52 158.56 28.52 157.74 28.52 156.64 28.52 156.64 39.35 158.56 39.35 158.56 31.09 160.37 37.78 160.74 37.78 162.02 37.78 162.51 37.78 164.41 30.96 164.41 39.35 166.33 39.35 166.33 28.52 165.21 28.52 164.41 28.52"/><polygon points="131.5 28.51 129.36 28.51 129.36 39.35 129.78 39.35 129.78 39.36 134.65 39.36 134.65 37.53 131.5 37.53 131.5 28.51"/><polygon points="139.58 28.51 137.44 28.51 137.44 39.35 137.85 39.35 137.85 39.36 142.73 39.36 142.73 37.53 139.58 37.53 139.58 28.51"/><polygon points="236.84 36.45 235.43 28.54 235.11 28.54 232.9 28.54 232.88 28.54 231.74 36.15 230.2 28.54 228.03 28.54 230.46 39.38 230.96 39.38 232.72 39.38 232.92 39.38 234.2 31.65 235.51 39.38 236.01 39.38 237.59 39.38 238.09 39.38 240.52 28.54 238.44 28.54 236.84 36.45"/><polygon points="269.81 28.54 267.31 28.54 264.52 32.49 264.52 28.54 262.4 28.54 262.4 39.38 264.52 39.38 264.52 35.87 265.24 34.87 267.72 39.38 270.31 39.38 266.7 32.84 269.81 28.54"/><path d="M259.51,31.66c0-2.29-1.8-3.12-3.62-3.12h-3.41V39.38h2.14V35.24H256l1.31,4.14h2.27L258,34.79A3.26,3.26,0,0,0,259.51,31.66Zm-4.89,1.86V30.26h1c1.14,0,1.78.53,1.78,1.61a1.54,1.54,0,0,1-1.76,1.65Z"/><path d="M309.56,31.66c0-2.29-1.81-3.12-3.63-3.12h-3.4V39.38h2.14V35.24h1.53C308.75,35.15,309.56,33.65,309.56,31.66Zm-3.87,1.86h-1V30.26h1c1.13,0,1.77.53,1.77,1.61A1.54,1.54,0,0,1,305.69,33.52Z"/><path d="M246,28.39c-2.46,0-3.75,1.33-3.75,5.32v.49c0,4,1.29,5.33,3.75,5.33s3.75-1.34,3.75-5.33v-.49C249.76,29.72,248.47,28.39,246,28.39Zm1.4,5.81c0,3-.4,3.6-1.4,3.6s-1.4-.58-1.4-3.6v-.49c0-3,.4-3.6,1.4-3.6s1.4.58,1.4,3.6Z"/><path d="M295.86,28.39c-2.46,0-3.75,1.33-3.75,5.32v.49c0,4,1.29,5.33,3.75,5.33s3.75-1.34,3.75-5.33v-.49C299.61,29.72,298.32,28.39,295.86,28.39Zm1.4,5.81c0,3-.4,3.6-1.4,3.6s-1.4-.58-1.4-3.6v-.49c0-3,.4-3.6,1.4-3.6s1.4.58,1.4,3.6Z"/><polygon points="287.27 33 284.12 33 284.12 28.54 281.98 28.54 281.98 39.38 284.12 39.38 284.12 34.72 287.27 34.72 287.27 39.38 289.41 39.38 289.41 28.54 287.27 28.54 287.27 33"/><path d="M276.25,32.9c-1.11-.73-1.63-1-1.63-1.75A1.07,1.07,0,0,1,275.79,30c.91,0,1.26.8,1.48,1.51l1.71-.57a3.07,3.07,0,0,0-3.32-2.53,2.87,2.87,0,0,0-3.16,3,2.72,2.72,0,0,0,1.17,2.3c1.78,1.32,3.48,1.83,3.48,3,0,.61-.32,1.08-1.37,1.08s-1.61-1.22-1.94-2l-1.77.59c.54,1.8,1.6,3.26,3.8,3.26,2,0,3.31-1.05,3.31-3.15C279.18,34.84,278.3,34.25,276.25,32.9Z"/><rect x="149.14" y="26.79" width="0.9" height="14.27"/><rect x="221.83" y="26.79" width="0.9" height="14.27"/></svg>