<svg xmlns="http://www.w3.org/2000/svg" viewBox="0 0 309.28 93.04"><defs><style>.cls-1{fill:#fff;stroke:#c2143d;stroke-miterlimit:10;stroke-width:3px;}</style></defs><title>bg_fukidashi</title><g id="レイヤー_2" data-name="レイヤー 2"><g id="main"><path class="cls-1" d="M14.23,46.53a33.23,33.23,0,0,0,1.82,11c.24.77.95,3.28.65,4.07A19.8,19.8,0,0,1,11,68.83C7,71.87,2,71,1.51,71.52c-.22.22,4.54,5.4,13.43,4.34,3.18-.4,6.29-1.48,8.49-1.82,3.95-.61,7.62,1.64,8.82,2.46C40.53,82.15,48.8,85,60.5,86.89c15,2.46,55.81,4.2,77.58,4.6,3.21.08,29.81.05,33.14,0,21.61-.42,75.28-2.17,90.26-4.6,25.71-4.18,46.3-18.06,46.3-40.36s-20.59-36.14-46.3-40.35C244.22,3.38,174.32,1.5,148,1.5S77.79,3.38,60.53,6.18C34.82,10.39,14.23,24.24,14.23,46.53Z"/></g></g></svg>