<svg xmlns="http://www.w3.org/2000/svg" viewBox="0 0 120 40" width="120" height="40"><defs><style>.cls-1{opacity:0;}.cls-2{fill:#7bb8ba;}.cls-3{fill:#e95504;}.cls-4{fill:#595757;}</style></defs><title>logo_resorts</title><rect class="cls-1" width="120" height="40"/><polygon class="cls-2" points="14.51 33.17 0 33.17 0 18.66 14.51 33.17"/><path class="cls-3" d="M14.89,5c-1.42,1-4,1.07-5.6.85C6.17,5.41,2.67,4.54,0,5.84V18.66a6.8,6.8,0,0,1,4.23-3.78,23.63,23.63,0,0,0,6-2.38c3.55-2.28,4.55-6.74,4.68-7.49Z"/><path class="cls-4" d="M63.4,10.47c-.29,1.69-1.49,1.16-2.67,2.39-.88.93-.82,2.35-.82,5.48v6.73H56.09V15.79c0-3.07,2.89-3.28,3.76-3.65a1.78,1.78,0,0,0,1.26-1.6l0-.07Z"/><path class="cls-4" d="M41.57,15c0-.3.3-.54.75-.54h8.93V12.92H39.93c-1.49,0-2.18.8-2.18,1.79v8.56c0,1,.69,1.8,2.18,1.8H51.25V23.51H42.32c-.45,0-.75-.24-.75-.54V19.84a.68.68,0,0,1,.75-.57h7.27V17.74H42.32a.68.68,0,0,1-.75-.58Z"/><path class="cls-4" d="M77.11,25.07V19.81c0-.3-.21-.54-.66-.54H70.81c-.46,0-.68.24-.68.54v5.26H66.32V12.92h3.81V17.2c0,.3.22.54.68.54h5.64c.45,0,.66-.24.66-.54V12.92h3.83V25.07Z"/><path class="cls-4" d="M96,14.32a3.31,3.31,0,0,0-3.22-1.79,3.24,3.24,0,0,0-3.1,1.79c-.17.37-5.35,10.75-5.35,10.75h3.19l1.75-3.73a1.16,1.16,0,0,1,1-.54h4.15a1.17,1.17,0,0,1,1,.54l1.73,3.73h4.21Zm-2.29,4.95H90.89c-.41,0-.63-.25-.49-.54L92,15.23c.14-.3.37-.3.51,0l1.61,3.5C94.28,19,94.07,19.27,93.66,19.27Z"/><path class="cls-4" d="M35.29,25.07H30.73l-5.26-5.35,0,0A1.3,1.3,0,0,0,24,19.3a1,1,0,0,0-.79,1v4.79H19.39V12.92h3.82V18.3l7-5.38H34l-5.4,4.16c-.54.48-.34.8.31,1.51Z"/><path class="cls-4" d="M115.69,20.71c.27.28.48.12.48-.14V12.92H120V23.86s.11,1.59-2,1.59a3.21,3.21,0,0,1-2.11-1l-6.9-7.22c-.22-.24-.48-.17-.48.15v7.65h-3.83v-11s-.09-1.59,2.07-1.59a3.22,3.22,0,0,1,2.12,1Z"/><path class="cls-4" d="M33.27,34a4.56,4.56,0,0,1-1.57,1.43l-.49-.5a3.81,3.81,0,0,0,1.44-1.22Zm4.21-3.48v.58H31.29v-.58H34v-.43h.81v.43ZM33.11,35l.25,0h.26c.36,0,.44-.06.44-.27V33.52H31.9V31.6H37v1.92H34.75v1.39c0,.57-.18.74-.87.75H33.3Zm-.52-2h3.69v-.84H32.59Zm3.48.72a4.46,4.46,0,0,0,1.48,1.16l-.55.5A5.58,5.58,0,0,1,35.47,34Z"/><path class="cls-4" d="M40,34h.15c.32,0,.46-.12.46-.43a4.1,4.1,0,0,0-.31-1.39,7.57,7.57,0,0,0,.39-1.37h-.75v4.84h-.65v-5.4h2.09v.41a12,12,0,0,1-.43,1.58,4,4,0,0,1,.32,1.43.93.93,0,0,1-.29.75,1.37,1.37,0,0,1-.7.22Zm2,1a3.93,3.93,0,0,0,1.33-.64,7.1,7.1,0,0,1-.76-1.57l.62-.24a4.59,4.59,0,0,0,.6,1.32,3.58,3.58,0,0,0,.58-1.61h-2a4.14,4.14,0,0,1-1,3.3l-.61-.43a3.43,3.43,0,0,0,1-2.9v-2h3.51v.56H42.39v.94H45v.38a4,4,0,0,1-.85,2.31,3.62,3.62,0,0,0,1.14.7l-.45.54a3.48,3.48,0,0,1-1.15-.8,4.21,4.21,0,0,1-1.3.75Z"/><path class="cls-4" d="M47.12,34.83a6.14,6.14,0,0,0,1-2.35l.69.17a6.42,6.42,0,0,1-1,2.57Zm.08-3.45h2.62V30.26h.71v1.12h2.52V32H50.53v3.48h-.71V32H47.2Zm4.88,1a20.33,20.33,0,0,0,1.15,2.45l-.68.29a20.55,20.55,0,0,1-1.14-2.49Z"/><path class="cls-4" d="M54.63,32h5.76v.62H58a2.79,2.79,0,0,1-2.13,2.92L55.32,35a2.8,2.8,0,0,0,1.58-.93,2.39,2.39,0,0,0,.36-1.45H54.63Zm5.08-1H55.29v-.62h4.42Z"/><path class="cls-4" d="M61.24,34.81a3.59,3.59,0,0,0,1.07-3V30.41H63v1.42a4.35,4.35,0,0,1-1.23,3.5Zm3.69-4.51v4.33a2,2,0,0,0,1.35-1,3,3,0,0,0,.43-1.29l.68.32a3,3,0,0,1-3.17,2.66v-5Z"/><path class="cls-4" d="M72.58,30.48l.53.65a7.08,7.08,0,0,1-1,1.91,21.13,21.13,0,0,1,2,2l-.59.5a23,23,0,0,0-1.85-1.94,8.36,8.36,0,0,1-2.81,1.86l-.49-.57A7.36,7.36,0,0,0,71.19,33a5.61,5.61,0,0,0,1.15-1.92H68.69v-.62Zm.67-.44a8.09,8.09,0,0,1,.75,1l-.37.25a6.31,6.31,0,0,0-.74-1.06Zm.85-.18a7.08,7.08,0,0,1,.67.91l-.35.25a5.5,5.5,0,0,0-.69-.95Z"/><path class="cls-4" d="M81,32.77a2.67,2.67,0,0,1-.61,1.68l.93,1h-1L79.9,35a2.09,2.09,0,0,1-1.51.56c-1.07,0-1.84-.61-1.84-1.45a1.28,1.28,0,0,1,.7-1.14,3.29,3.29,0,0,1,.54-.24,1.57,1.57,0,0,1-.61-1.13c0-.63.58-1.08,1.42-1.08s1.37.42,1.37,1-.38.94-1.15,1.29L79.9,34a2.36,2.36,0,0,0,.34-1.21Zm-2.78.35c-.62.31-.81.54-.81.94a1,1,0,0,0,1,.89,1.5,1.5,0,0,0,1-.46Zm.43-.81c.43-.27.62-.5.62-.76s-.28-.49-.64-.49a.6.6,0,0,0-.66.53,1.07,1.07,0,0,0,.41.76l.07.07Z"/><path class="cls-4" d="M84.27,30.57V33.7h-.72V30.57ZM84,35a4.59,4.59,0,0,0,2.6-.59c.61-.45.81-1,.81-2.19V30.46h.72v1.78c0,1.39-.24,2.06-.89,2.57a4.78,4.78,0,0,1-3,.86Z"/><path class="cls-4" d="M90.62,30.51a11.13,11.13,0,0,1,.86,2l-.7.26a11.38,11.38,0,0,0-.84-2Zm4.73.62a5.1,5.1,0,0,1-4.1,4.34l-.4-.6A4.34,4.34,0,0,0,94.56,31Zm-1-1.27a6,6,0,0,1,.76.83l-.35.25a6,6,0,0,0-.74-.85Zm1,0a7.63,7.63,0,0,1,.65.81l-.35.24a8.32,8.32,0,0,0-.64-.86Z"/><path class="cls-4" d="M101.73,32.55v.64h-5.1v-.64Z"/><path class="cls-4" d="M103.79,30.74c.29.79.35.94.64,1.89l-.73.2c-.27-.94-.31-1.08-.61-1.9Zm.64,4.21c2.49-.71,3.46-2,3.52-4.54l.81.09a5.77,5.77,0,0,1-.88,3,5,5,0,0,1-2.93,2Zm1.35-4.51c.29.75.34.89.61,1.77l-.69.22a18.37,18.37,0,0,0-.65-1.8Z"/><path class="cls-4" d="M38.37,4.41a1.46,1.46,0,0,0-.38.88c0,.43.35.78,1.24.78a2.93,2.93,0,0,0,1.24-.17c.38.07.53.2.53.38s-.69.3-1.71.3S37.7,6.06,37.7,5.51a1.56,1.56,0,0,1,.61-1.16Zm1.21-1a6.52,6.52,0,0,1-1.07.15.62.62,0,0,1-.61-.51.37.37,0,0,1,0-.11h0c.08.12.27.19.61.19A6,6,0,0,0,40,2.88c.36,0,.61.2.61.45s-.17.18-.32.19A4.25,4.25,0,0,0,38.84,4L38.78,4c.17-.13.61-.37.79-.5Z"/><path class="cls-4" d="M45.77,4.41a1.46,1.46,0,0,0-.38.88c0,.43.35.78,1.24.78a2.93,2.93,0,0,0,1.24-.17c.38.07.53.2.53.38s-.69.3-1.71.3S45.1,6.06,45.1,5.51a1.54,1.54,0,0,1,.62-1.16Zm1.21-1a6.52,6.52,0,0,1-1.07.15.62.62,0,0,1-.61-.51.37.37,0,0,1,0-.11h0c.07.12.26.19.6.19a5.92,5.92,0,0,0,1.44-.27c.36,0,.61.2.61.45s-.17.18-.32.19A4.25,4.25,0,0,0,46.24,4L46.18,4c.17-.13.61-.37.79-.5Z"/><path class="cls-4" d="M53.23,6.77c1.47-.1,2.29-.55,2.29-1.28,0-.57-.28-.92-.85-.92a2.27,2.27,0,0,0-1.61.87c-.17.21-.29.44-.43.44a.28.28,0,0,1-.28-.3c0-.28.22-.37.44-.6.5-.53,1.32-1.39,1.74-1.79.09-.09.16-.16.16-.2s0,0-.06,0a4.06,4.06,0,0,0-1.11.32c-.13.07-.16.16-.29.16a.58.58,0,0,1-.49-.53.43.43,0,0,1,.13-.33h0c0,.19.13.31.34.31a4.25,4.25,0,0,0,1.23-.23,2.79,2.79,0,0,1,.29-.15c.21,0,.58.24.58.47s-.2.17-.37.31a10.62,10.62,0,0,0-1.54,1.46v0a2.76,2.76,0,0,1,1.36-.43,1.17,1.17,0,0,1,1.28,1.17c0,.94-.81,1.35-2.85,1.36Z"/><path class="cls-4" d="M61.09,2.64a.38.38,0,0,1,.38-.25c.35,0,.68.18.68.34s-.08.14-.1.25,0,.14,0,.27c.22,0,.87-.11.93-.31l0,0c.22.07.61.06.61.29s-.19.21-.52.27A7.73,7.73,0,0,1,62,3.62v.77c.15,0,.8-.07.8-.2a.16.16,0,0,0-.08-.11L62.79,4a.49.49,0,0,0,.28.12c.16,0,.4.05.4.19s-.12.23-.43.29a8.79,8.79,0,0,1-1,.12,4.92,4.92,0,0,0,0,.65,1.24,1.24,0,0,0,0,.18,3.94,3.94,0,0,1,1.14.49.53.53,0,0,1,.26.45.24.24,0,0,1-.25.23.47.47,0,0,1-.37-.21A2.1,2.1,0,0,0,62.13,6v.23c0,.41-.32.64-1,.64S60,6.54,60,6.14s.52-.68,1.13-.68a4.19,4.19,0,0,1,.5,0c0-.06,0-.67,0-.72-.18,0-.47,0-.68,0-.52,0-.77-.16-.77-.41s.18-.35.47-.49l0,.06c-.18.1-.26.21-.26.32s.15.19.48.19l.7,0,0-.79c-.25,0-.59,0-.77,0-.54,0-.8-.1-1-.54l.06-.05a1,1,0,0,0,.72.25c.24,0,.7,0,.94,0V3.1c0-.29,0-.45-.31-.45H61.1Zm.55,3.17a2.71,2.71,0,0,0-.57-.09c-.44,0-.72.16-.72.37s.28.36.72.36.57-.14.57-.42Z"/><path class="cls-4" d="M70,2.9a.64.64,0,0,0,.28.05c.42,0,.45.17.45.25s-.14.18-.38.27a8.8,8.8,0,0,1-1.5.33A11.58,11.58,0,0,0,68.66,5c0,.12,0,.07.08.11a2.75,2.75,0,0,1,1.39-.49c.75,0,1.13.41,1.13,1,0,.94-1.06,1.25-2.75,1.31l0-.1c1.53-.21,2.2-.7,2.2-1.22s-.13-.78-.64-.78a1.6,1.6,0,0,0-1.26.73c-.05.1-.1.22-.24.22a.43.43,0,0,1-.42-.4c0-.12.06-.16.09-.28s.16-.87.21-1.21l-.43,0c-.49,0-.67-.24-.68-.55l.05,0c.14.18.31.22.66.22l.44,0a4.83,4.83,0,0,0,.06-.57c0-.08,0-.24-.25-.24l-.14,0h0a.4.4,0,0,1,.43-.28c.24,0,.59.12.59.29s-.08.17-.13.32a3.85,3.85,0,0,0-.1.4c.41,0,1-.23,1-.42a.09.09,0,0,0,0,0Z"/><path class="cls-4" d="M78,6.39a5.06,5.06,0,0,0,2-.59,1.49,1.49,0,0,0,.74-1.23c0-.69-.33-1.16-1-1.16a3.37,3.37,0,0,0-1.78.68c-.15.11-.28.28-.46.28a.7.7,0,0,1-.68-.64.37.37,0,0,1,.13-.31h0a.36.36,0,0,0,.37.34,13.51,13.51,0,0,1,2.44-.59c1,0,1.6.47,1.6,1.43A1.61,1.61,0,0,1,80.4,6,5.9,5.9,0,0,1,78,6.51Z"/><path class="cls-4" d="M85.89,2.53a.41.41,0,0,1,.33-.16c.35,0,.78.29.78.52s-.2.21-.42.33a11.43,11.43,0,0,0-1.48,1,.48.48,0,0,0-.18.35c0,.14.26.3.56.45,1,.54,1.67,1.25,1.67,1.57S87,7,86.84,7a.46.46,0,0,1-.34-.28A4.53,4.53,0,0,0,85,5.14a.65.65,0,0,1-.36-.53.68.68,0,0,1,.23-.51c.27-.26.9-.82,1.2-1.08.14-.11.19-.2.19-.29s-.19-.19-.35-.17Z"/><path class="cls-4" d="M91.48,6.77c1.47-.1,2.29-.55,2.29-1.28,0-.57-.27-.92-.85-.92a2.26,2.26,0,0,0-1.6.87c-.18.21-.29.44-.44.44a.28.28,0,0,1-.28-.3c0-.28.23-.37.44-.6.5-.53,1.32-1.39,1.74-1.79.1-.09.16-.16.16-.2s0,0,0,0a4.11,4.11,0,0,0-1.12.32c-.12.07-.16.16-.29.16A.6.6,0,0,1,91,2.91a.47.47,0,0,1,.13-.33h0a.31.31,0,0,0,.35.31,4.38,4.38,0,0,0,1.23-.23c.12,0,.23-.15.28-.15.21,0,.58.24.58.47s-.19.17-.36.31a10.69,10.69,0,0,0-1.55,1.46v0a2.76,2.76,0,0,1,1.36-.43,1.17,1.17,0,0,1,1.28,1.17c0,.94-.8,1.35-2.84,1.36Z"/><path class="cls-4" d="M98,4a.52.52,0,0,0,0,.11.21.21,0,0,0,.23.2c.29,0,.88-.46,1.51-.46.79,0,1,.53,1,1.18,0,.88-.71,1.69-2.2,2l0-.09A2.19,2.19,0,0,0,100,5c0-.5-.06-.86-.46-.86a1.42,1.42,0,0,0-1,.57c-.1.12-.17.22-.36.22a.62.62,0,0,1-.53-.54A.47.47,0,0,1,97.9,4Zm.79-.68A6.16,6.16,0,0,0,99.33,3h0a2.14,2.14,0,0,1-.63-.11.64.64,0,0,1-.38-.49l.06-.05c.09.15.31.23.66.23h.47c.39,0,.66.17.66.4s-.2.21-.39.21a3.37,3.37,0,0,0-1,.22Z"/></svg>