<svg xmlns="http://www.w3.org/2000/svg" viewBox="0 0 120 40" width="120" height="40"><defs><style>.cls-1{opacity:0;}.cls-2{fill:#7bb8ba;}.cls-3{fill:#e95504;}.cls-4{fill:#595757;}</style></defs><title>logo_hkeihan</title><rect class="cls-1" width="120" height="40"/><polygon class="cls-2" points="14.51 33.55 0 33.55 0 19.05 14.51 33.55"/><path class="cls-3" d="M14.89,5.39c-1.42,1-4,1.08-5.6.85C6.17,5.79,2.68,4.93,0,6.22V19.05a6.81,6.81,0,0,1,4.23-3.79c2.13-.71,4-1.08,6-2.37,3.55-2.29,4.55-6.75,4.68-7.5"/><path class="cls-4" d="M56.09,19V16.18c0-3.07,2.89-3.28,3.76-3.65a1.75,1.75,0,0,0,1.25-1.61v-.06h2.3c-.29,1.68-1.49,1.15-2.67,2.38-.88.94-.82,2.35-.82,5.48v6.73H56.09V19"/><path class="cls-4" d="M41.57,15.36c0-.29.3-.54.75-.54h8.93V13.3H39.93c-1.49,0-2.18.81-2.18,1.8v8.55c0,1,.69,1.8,2.18,1.8H51.25V23.89H42.32c-.45,0-.75-.24-.75-.54V20.23a.68.68,0,0,1,.75-.58h7.27V18.12H42.32a.68.68,0,0,1-.75-.57Z"/><path class="cls-4" d="M77.11,25.45V20.19c0-.3-.21-.54-.66-.54H70.81c-.46,0-.68.24-.68.54v5.26H66.32V13.3h3.81v4.28c0,.3.22.54.68.54h5.64c.45,0,.66-.24.66-.54V13.3h3.83V25.45Z"/><path class="cls-4" d="M96,14.7a3.31,3.31,0,0,0-3.22-1.78,3.25,3.25,0,0,0-3.1,1.78c-.17.37-5.35,10.75-5.35,10.75h3.19l1.75-3.72a1.14,1.14,0,0,1,1-.54h4.15a1.18,1.18,0,0,1,1,.53l1.73,3.73h4.21L96,14.7m-2.29,4.95H90.89c-.41,0-.63-.24-.49-.54L92,15.61c.14-.29.37-.29.51,0l1.61,3.5c.14.3-.07.54-.48.54"/><path class="cls-4" d="M35.28,25.45H30.73L25.47,20.1l0,0A1.3,1.3,0,0,0,24,19.68a1,1,0,0,0-.79,1v4.79H19.39V13.3h3.82v5.38l7-5.38H34l-5.4,4.16c-.53.48-.34.81.31,1.52Z"/><path class="cls-4" d="M115.69,21.09c.27.28.48.12.48-.13V13.3H120V24.24s.11,1.59-2,1.59a3.21,3.21,0,0,1-2.11-1l-6.9-7.21c-.23-.25-.49-.18-.49.14v7.65h-3.82V14.51s-.09-1.59,2.07-1.59a3.22,3.22,0,0,1,2.12,1Z"/><path class="cls-4" d="M47.36,36.55a8.13,8.13,0,0,0,1.28-3.11l.91.22a8.46,8.46,0,0,1-1.38,3.41Zm.1-4.58h3.48V30.5h.94V32h3.34v.83H51.88v4.61h-.94V32.8H47.46Zm6.47,1.39a24.85,24.85,0,0,0,1.53,3.24l-.91.39A28.7,28.7,0,0,1,53,33.69Z"/><path class="cls-4" d="M56.93,32.84h7.63v.82h-3.2a3.68,3.68,0,0,1-2.81,3.87l-.7-.71a3.59,3.59,0,0,0,2.08-1.24,3.09,3.09,0,0,0,.48-1.92H56.93Zm6.73-1.28H57.81v-.82h5.85Z"/><path class="cls-4" d="M65.32,36.53c1-1,1.38-2,1.41-3.94V30.7h1v1.87A5.78,5.78,0,0,1,66,37.21Zm4.88-6v5.73A2.63,2.63,0,0,0,72,35a4,4,0,0,0,.56-1.72l.9.44a4,4,0,0,1-4.2,3.52V30.55Z"/><path class="cls-4" d="M77.09,35.44A6.22,6.22,0,0,1,75,37.34l-.65-.67a5.13,5.13,0,0,0,1.91-1.62Zm5.58-4.62v.78h-8.2v-.78h3.59v-.56h1.07v.56Zm-5.8,6,.34,0h.35c.48,0,.58-.07.58-.36V34.81H75.28V32.27H82v2.54H79.06v1.85c0,.76-.25,1-1.16,1h-.77Zm-.68-2.71h4.89V33H76.19Zm4.61.95a5.74,5.74,0,0,0,2,1.54l-.71.67a7.51,7.51,0,0,1-2-1.82Z"/><path class="cls-4" d="M85.52,35.46h.2c.43,0,.61-.17.61-.58a5.37,5.37,0,0,0-.41-1.83,10.86,10.86,0,0,0,.52-1.82h-1v6.41h-.86V30.5h2.77V31a15.13,15.13,0,0,1-.57,2.09A5.38,5.38,0,0,1,87.2,35a1.27,1.27,0,0,1-.38,1,1.8,1.8,0,0,1-.93.28Zm2.7,1.37A4.93,4.93,0,0,0,90,36a9.47,9.47,0,0,1-1-2.08l.82-.32a6.2,6.2,0,0,0,.79,1.75,4.75,4.75,0,0,0,.78-2.14h-2.6c0,2.25-.35,3.26-1.4,4.39L86.55,37c1-.92,1.35-1.92,1.35-3.85V30.47h4.64v.74H88.76v1.24h3.5V33A5.42,5.42,0,0,1,91.15,36a4.36,4.36,0,0,0,1.49.93l-.59.71a4.79,4.79,0,0,1-1.52-1,5.49,5.49,0,0,1-1.73,1Z"/><path class="cls-4" d="M38.39,4.41a1.4,1.4,0,0,0-.38.88c0,.43.34.78,1.24.78a3.18,3.18,0,0,0,1.24-.17c.38.07.53.2.53.38s-.7.3-1.72.3-1.59-.52-1.59-1.07a1.54,1.54,0,0,1,.62-1.16Zm1.2-1a6.52,6.52,0,0,1-1.07.15.62.62,0,0,1-.61-.51.36.36,0,0,1,0-.11h0c.08.12.26.19.6.19A6.13,6.13,0,0,0,40,2.88c.36,0,.6.2.6.45s-.17.18-.32.19A4.25,4.25,0,0,0,38.85,4L38.8,4c.16-.13.61-.37.78-.5Z"/><path class="cls-4" d="M45.79,4.41a1.4,1.4,0,0,0-.38.88c0,.43.34.78,1.24.78a3.18,3.18,0,0,0,1.24-.17c.38.07.53.2.53.38s-.7.3-1.72.3-1.59-.52-1.59-1.07a1.54,1.54,0,0,1,.62-1.16Zm1.2-1a6.52,6.52,0,0,1-1.07.15.62.62,0,0,1-.61-.51.36.36,0,0,1,0-.11h0c.08.12.26.19.6.19a6.13,6.13,0,0,0,1.45-.27c.36,0,.6.2.6.45s-.17.18-.32.19A4.4,4.4,0,0,0,46.25,4l0-.07c.16-.13.61-.37.78-.5Z"/><path class="cls-4" d="M53.24,6.77c1.47-.1,2.29-.55,2.29-1.28,0-.57-.27-.92-.85-.92a2.26,2.26,0,0,0-1.6.87c-.18.21-.29.44-.44.44a.28.28,0,0,1-.28-.3c0-.28.23-.37.44-.6.5-.53,1.32-1.39,1.74-1.8.1-.08.16-.15.16-.19s0,0-.05,0a4.11,4.11,0,0,0-1.12.32c-.12.07-.16.16-.29.16a.58.58,0,0,1-.49-.53.47.47,0,0,1,.13-.33h0a.31.31,0,0,0,.34.31,4.25,4.25,0,0,0,1.23-.23,2.79,2.79,0,0,1,.29-.15c.21,0,.58.24.58.47s-.19.17-.36.31a10.69,10.69,0,0,0-1.55,1.46h0a2.84,2.84,0,0,1,1.36-.42A1.17,1.17,0,0,1,56.1,5.52c0,.94-.8,1.35-2.85,1.36Z"/><path class="cls-4" d="M61.1,2.64a.39.39,0,0,1,.38-.25c.36,0,.69.18.69.34s-.09.14-.11.25,0,.14,0,.27c.22,0,.87-.11.93-.31l.06,0c.22.07.6.06.6.29s-.19.21-.52.27A7.78,7.78,0,0,1,62,3.62c0,.16,0,.32,0,.46s0,.22,0,.31.79-.07.79-.2a.13.13,0,0,0-.08-.11L62.8,4a.52.52,0,0,0,.28.12c.17,0,.4.05.4.19s-.12.23-.43.29a8.79,8.79,0,0,1-1,.12,4.92,4.92,0,0,0,.05.65,1.24,1.24,0,0,0,0,.18,3.71,3.71,0,0,1,1.14.49.54.54,0,0,1,.27.45.25.25,0,0,1-.26.23.49.49,0,0,1-.37-.21A2.14,2.14,0,0,0,62.15,6v.23c0,.41-.31.64-1,.64S60,6.54,60,6.13s.53-.67,1.14-.67a4.15,4.15,0,0,1,.49,0c0-.06,0-.67,0-.72-.17,0-.47,0-.68,0-.51,0-.77-.16-.77-.41s.18-.35.47-.49l.05.06c-.18.1-.25.21-.25.32s.14.19.47.19l.7,0V3.65l-.77,0c-.55,0-.81-.1-1-.54l0-.05a1,1,0,0,0,.72.25c.24,0,.71,0,1,0V3.1c0-.29,0-.45-.31-.45h-.15Zm.55,3.17a2.11,2.11,0,0,0-.56-.09c-.44,0-.73.16-.73.37s.28.36.72.36.58-.14.57-.42Z"/><path class="cls-4" d="M70,2.9a.64.64,0,0,0,.28.05c.43,0,.45.17.45.25s-.14.18-.38.27a8.59,8.59,0,0,1-1.5.33A11.58,11.58,0,0,0,68.67,5c0,.12.06.07.08.11a2.79,2.79,0,0,1,1.39-.49c.76,0,1.13.41,1.13,1,0,.94-1.06,1.25-2.75,1.31l0-.1c1.53-.21,2.2-.7,2.2-1.22s-.12-.78-.63-.78a1.6,1.6,0,0,0-1.26.73c-.06.1-.1.22-.24.22a.44.44,0,0,1-.43-.4c0-.12.07-.16.1-.28s.15-.87.2-1.21l-.43,0c-.49,0-.67-.24-.68-.55l0,0c.14.18.31.22.66.22l.44,0a4.83,4.83,0,0,0,.06-.57c0-.08,0-.24-.24-.24l-.15,0h0a.41.41,0,0,1,.43-.28c.25,0,.59.12.59.29s-.08.17-.13.32-.06.25-.1.4c.41,0,1-.24,1-.42,0,0,0,0,0,0Z"/><path class="cls-4" d="M78,6.39a5,5,0,0,0,2-.59,1.49,1.49,0,0,0,.74-1.23c0-.69-.32-1.16-1-1.16a3.4,3.4,0,0,0-1.78.68c-.15.11-.28.28-.45.28a.7.7,0,0,1-.69-.64.41.41,0,0,1,.13-.31h0a.35.35,0,0,0,.36.34,14,14,0,0,1,2.44-.59c1,0,1.6.47,1.6,1.43A1.6,1.6,0,0,1,80.42,6,5.85,5.85,0,0,1,78,6.5Z"/><path class="cls-4" d="M85.9,2.53a.41.41,0,0,1,.33-.16c.35,0,.79.29.79.52s-.2.21-.43.33a11.43,11.43,0,0,0-1.48,1,.47.47,0,0,0-.17.35c0,.14.25.3.55.45,1,.54,1.67,1.25,1.67,1.57s-.11.38-.31.39a.43.43,0,0,1-.33-.28A4.57,4.57,0,0,0,85,5.14a.65.65,0,0,1-.36-.53.71.71,0,0,1,.23-.51c.27-.26.91-.82,1.21-1.08a.4.4,0,0,0,.18-.29c0-.12-.19-.19-.35-.17Z"/><path class="cls-4" d="M91.49,6.77c1.47-.1,2.3-.55,2.3-1.28,0-.57-.28-.92-.85-.92a2.26,2.26,0,0,0-1.61.87c-.18.21-.29.44-.44.44a.28.28,0,0,1-.27-.3c0-.28.22-.37.43-.6.51-.53,1.32-1.39,1.75-1.8C92.89,3.1,93,3,93,3s0,0-.06,0a4.11,4.11,0,0,0-1.12.32c-.12.07-.16.16-.29.16A.6.6,0,0,1,91,2.91a.47.47,0,0,1,.13-.33h0a.31.31,0,0,0,.35.31,4.38,4.38,0,0,0,1.23-.23c.12,0,.23-.15.29-.15s.57.24.57.47-.19.17-.36.31a10.62,10.62,0,0,0-1.54,1.46h0a2.84,2.84,0,0,1,1.36-.42,1.17,1.17,0,0,1,1.27,1.17c0,.94-.8,1.35-2.84,1.36Z"/><path class="cls-4" d="M98,4a.26.26,0,0,0,0,.11.21.21,0,0,0,.23.2c.29,0,.88-.46,1.52-.46.79,0,1,.53,1,1.18,0,.88-.71,1.69-2.19,2l0-.09A2.19,2.19,0,0,0,100,5c0-.5-.05-.86-.45-.86a1.46,1.46,0,0,0-1,.57c-.1.12-.17.22-.35.22a.61.61,0,0,1-.53-.54A.45.45,0,0,1,97.91,4Zm.79-.68c.15-.08.58-.3.58-.32h0a2.15,2.15,0,0,1-.64-.11.64.64,0,0,1-.38-.49l.06-.05c.1.15.31.23.66.23l.47,0c.39,0,.66.18.66.41s-.19.21-.39.21a3.51,3.51,0,0,0-1,.22Z"/></svg>