<svg data-name="グループ 12076" xmlns="http://www.w3.org/2000/svg" viewBox="0 0 29 29"><defs><clipPath id="a"><path data-name="長方形 3967" fill="none" d="M0 0H29V29H0z"/></clipPath></defs><g data-name="グループ 12076" clip-path="url(#a)"><path data-name="パス 36609" d="M22.5 29h-16A6.5 6.5 0 0 1 0 22.5v-16A6.5 6.5 0 0 1 6.5 0h16A6.5 6.5 0 0 1 29 6.5v16a6.5 6.5 0 0 1-6.5 6.5" fill="#06c755"/><path data-name="パス 36610" d="M72.6 66.2c0-4.3-4.3-7.9-9.7-7.9s-9.6 3.6-9.6 7.9c0 3.9 3.4 7.1 8 7.7.4.1.8.2 1 .5a2 2 0 0 1 0 .9l-.2.8c0 .3-.2 1 .8.5a31.2 31.2 0 0 0 7.6-5.6 7 7 0 0 0 2.1-4.8" transform="translate(-48.5 -53)" fill="#fff"/><path data-name="パス 36611" d="M202 126.4h-2.7a.2.2 0 0 1-.1-.1V122a.2.2 0 0 1 .1-.1h2.8a.2.2 0 0 1 .1.1v.7a.2.2 0 0 1-.1.2h-1.9v.7h1.9a.2.2 0 0 1 .1.2v.7a.2.2 0 0 1-.1.2h-1.9v.7h1.9a.2.2 0 0 1 .1.2v.7a.2.2 0 0 1-.1.2" transform="translate(-181.1 -110.8)" fill="#06c755"/><path data-name="パス 36612" d="M91.2 126.4a.2.2 0 0 0 .2-.1v-.7a.2.2 0 0 0-.2-.2h-1.9V122a.2.2 0 0 0-.2-.1h-.6a.2.2 0 0 0-.2.1v4.3a.2.2 0 0 0 .2.1h2.7Z" transform="translate(-80.3 -110.8)" fill="#06c755"/><path data-name="パス 36613" d="M129.6 121.9h-.7a.2.2 0 0 0-.2.1v4.3a.2.2 0 0 0 .2.1h.7a.2.2 0 0 0 .2-.1V122a.2.2 0 0 0-.2-.1" transform="translate(-117 -110.8)" fill="#06c755"/><path data-name="パス 36614" d="M151.5 121.9h-.7a.2.2 0 0 0-.2.1v2.5l-2-2.6h-.8a.2.2 0 0 0-.1.2v4.2a.2.2 0 0 0 .1.2h.7a.2.2 0 0 0 .2-.2v-2.5l2 2.6h.8a.2.2 0 0 0 .2-.1V122a.2.2 0 0 0-.2-.2" transform="translate(-134.3 -110.8)" fill="#06c755"/></g></svg>