<svg xmlns="http://www.w3.org/2000/svg" viewBox="0 0 293.2 61.9" width="293.2" height="61.9"><defs><style>.cls-1{fill:#231815;}.cls-2{fill:#63a350;}</style></defs><title>logo_annex</title><g id="image"><path class="cls-1" d="M91.6,5.7a15.37,15.37,0,0,1,1.7,1.9l.7-.4a6.08,6.08,0,0,0-2.4-1.5"/><path class="cls-1" d="M93.2,1.3H90.6V0h-.7V1.3H86l-.1.3h8.5L93.7.7Z"/><path class="cls-1" d="M92.6,4.8V3l.4-.3L92.2,2l-.3.4H88.7l-.8-.3V4.7H90V7.6H88.5a10.93,10.93,0,0,1,1.5.8h.6V4.8Zm-4-.3V2.7h3.3V4.5Z"/><path class="cls-1" d="M89.1,6.2l-.8-.5L88,6,86.2,7.8a5.94,5.94,0,0,0,2.3-1.4Z"/><path class="cls-1" d="M101.4,1l-.9-.6c-.1.1-.1.2-.2.4A16.44,16.44,0,0,1,98.9,3h-.6V1.6h1.3L99.1.9l-.4.5h-.3V.1h-.6V1.4H96.5l-.1.2h1.5V3H96.3l-.3.4h2.7a10.63,10.63,0,0,1-.9,1.1l-.4.4a14.36,14.36,0,0,1-1.5,1.4,4.62,4.62,0,0,0,1.5-.9V8.3h3V4.6H98.3l1.2-1.2h2l-.7-.9-.5.6h-.7a12.74,12.74,0,0,0,1.3-1.9ZM99.8,7.5V8H98V6.5h1.8v1m0-2.7V6.1H98V4.9h.1Z"/><path class="cls-1" d="M110.4,1.9c-.1,0-.1-.1,0-.2s.3-.4.4-.6.1-.2.1-.3L109.6.1l.3.8a1.45,1.45,0,0,1-.2.7,10.59,10.59,0,0,1-2.2,2.9l.1.1a8.48,8.48,0,0,0,2.6-2.4l.1.2L112,2l.3.2a9.43,9.43,0,0,1-1,2.3,13.36,13.36,0,0,0-1.8-.7l-.3.1A9.06,9.06,0,0,1,110.8,5a9.35,9.35,0,0,1-3.7,3.1l.1.2a8.23,8.23,0,0,0,4.2-2.9,9.17,9.17,0,0,1,1.3,1.2l.3-.7a10.59,10.59,0,0,0-1.2-1c.4-.6.7-1.3,1.1-1.9a2.2,2.2,0,0,1,.5-.6l-.9-.9a19.14,19.14,0,0,1-2.1.4"/><path class="cls-1" d="M196.7,1.9c-.1,0-.1-.1,0-.2s.3-.4.4-.6a.37.37,0,0,0,.1-.3L195.9.1l.3.8a1.45,1.45,0,0,1-.2.7,10.59,10.59,0,0,1-2.2,2.9l.1.1a8.48,8.48,0,0,0,2.6-2.4l.1.2,1.7-.4.3.2a11.48,11.48,0,0,1-1.4,2.7A9.35,9.35,0,0,1,193.5,8l.1.2a8.23,8.23,0,0,0,4.2-2.9,12.75,12.75,0,0,0,1.5-2.5,2.2,2.2,0,0,1,.5-.6l-.9-.9a6.62,6.62,0,0,1-2.2.6"/><path class="cls-1" d="M121.3,1.3a18.29,18.29,0,0,1-3.3.2L116.8.9l.3.9V4h.7V1.9l.3.2,3.5-.4.2.3a7.57,7.57,0,0,1-4.1,5.8l.2.2c.3-.1,3.3-.9,4.6-5.1a1.56,1.56,0,0,1,.6-.8l-1.1-1Z"/><path class="cls-1" d="M131.5,3.5a1.27,1.27,0,0,1-.6.1c-1.1.1-3.4.2-3.9.2a4.53,4.53,0,0,1-1.6-.3l.6,1a24,24,0,0,1,3.3-.2,23.48,23.48,0,0,1,2.6.1h.3l.2-.3-.9-.6h0"/><path class="cls-1" d="M149.1,1.4h1.7l.3-.2-.5-.6h-.1a.6.6,0,0,1-.4.1,22.75,22.75,0,0,1-2.6.2,1.14,1.14,0,0,1-.8-.3l.4,1a13.55,13.55,0,0,1,2-.2"/><path class="cls-1" d="M140.6,4.4a18.19,18.19,0,0,1,1.5,2.3l.8-.3a5,5,0,0,0-2.3-2"/><path class="cls-1" d="M139.5,2.7V2a1.45,1.45,0,0,1,.2-.7c.1-.2,0-.3-.1-.3L138.3.7l.5.6a2.49,2.49,0,0,1,.1.8v.7c-.5.1-2.1.1-2.8.2l-.7-.3.5,1a14.68,14.68,0,0,1,2.9-.5V7.5h-1.4c1.3.3,1.5.9,1.5.9h.6V3c1,0,2,0,3,.1l.4-.2-.8-.7a13.18,13.18,0,0,1-2.6.5"/><path class="cls-1" d="M137.5,4.4a3,3,0,0,1-1.6,1.7l.5.6a2.49,2.49,0,0,0,1.1-2.3"/><path class="cls-1" d="M104.8.7,104,0l-.4.5h-2V8.3h.7V.8h1.3c-.3,1.4-.6,2.7-.6,2.7a2.71,2.71,0,0,1,.7,1,2.36,2.36,0,0,1,.3,2c-.1.3-.3.4-.7.4a3.55,3.55,0,0,1-.7-.1,3.92,3.92,0,0,1,1,.8,1.08,1.08,0,0,0,1-.8c.5-1.3-.5-2.5-1.4-3.2l1-2.4Z"/><path class="cls-1" d="M149.2,3c-.5.1-2.7.2-3.3.2l-.7-.3.5,1a15.67,15.67,0,0,1,3-.5A4.12,4.12,0,0,1,146.2,8l.1.2a5.09,5.09,0,0,0,3.3-4.5l-.4-.3c1,0,2,0,3,.1l.4-.2-.8-.7a23.36,23.36,0,0,1-2.6.4"/><path class="cls-1" d="M155.9,2l.4.7a2.2,2.2,0,0,1-.1.8,8.51,8.51,0,0,1-2.6,4.1l.2.1a8.34,8.34,0,0,0,1.2-.8,8.43,8.43,0,0,0,2.1-3.5c.1-.2.1-.5.3-.7s.1-.3,0-.3Z"/><path class="cls-1" d="M159.3,5.8V2.5a1.45,1.45,0,0,1,.2-.7c.1-.2,0-.3-.1-.3L158,1.2l.5.6a2.49,2.49,0,0,1,.1.8V5.7l-.2.5.8.6.4-.3a11.19,11.19,0,0,0,3.5-3l.1-.5c-3.3,3.3-3.9,2.8-3.9,2.8"/><path class="cls-1" d="M173.1,1a30.24,30.24,0,0,1-4.3.2L167.7.6l.5,1.1,5.2-.4.1.1a8.56,8.56,0,0,1-1.9,1.9c0-.2.1-.4.1-.7l-1.3-.2.5.7a5.17,5.17,0,0,1-2.3,4.8l.1.1a5,5,0,0,0,2.9-4.2h0a23.26,23.26,0,0,0,2.6-1.7,1.42,1.42,0,0,1,.6-.2l-1-1.2Z"/><path class="cls-1" d="M181.2,3.2l.2-.3-.9-.8-.4.2-1.7.3a1.7,1.7,0,0,1-.7.1l-.7-.5.5,1c.1.1.1.1.3,0a1.42,1.42,0,0,1,.6-.2l1.8-.4s.2,1.6-4.3,4.2l.1.1a8.18,8.18,0,0,0,3.6-2.1l.2.1V8.3h.6V4.6l-.4-.3Z"/><path class="cls-1" d="M181.2,4.5a11.22,11.22,0,0,1,1.6,2.2l.8-.4a5.46,5.46,0,0,0-2.4-1.8"/><path class="cls-1" d="M180.1,1.5l.6-.3A4.45,4.45,0,0,0,178.6,0a5.36,5.36,0,0,1,1.5,1.5"/><path class="cls-1" d="M187.2,5.4A3.16,3.16,0,0,0,185.8,4l-.1.1a6.47,6.47,0,0,1,.9,1.6Z"/><path class="cls-1" d="M188.6,4.7a3.16,3.16,0,0,0-1.4-1.4l-.1.1A6.47,6.47,0,0,1,188,5Z"/><path class="cls-1" d="M189.8,3.1l.4.7a1.7,1.7,0,0,1-.1.7,6.11,6.11,0,0,1-3.4,3.8l.1.1a8.86,8.86,0,0,0,1.7-.8,6.82,6.82,0,0,0,2.2-3.1l.3-.6c.1-.2.1-.2,0-.3Z"/><path class="cls-1" d="M206.7,5.1a2.51,2.51,0,0,0-.7-.4,23.36,23.36,0,0,0,1.3-2.2,1,1,0,0,1,.5-.4l-1.1-1-.4.2-2.6.4H203l-.9-.6.4,1.1c.1.1.4.2.5.1a13.41,13.41,0,0,1,3.2-.8l.2.3a12.54,12.54,0,0,1-5.5,6.1l.1.1a11.61,11.61,0,0,0,4.7-3.2,7.81,7.81,0,0,1,2.4,2.7l.4-.8a9.69,9.69,0,0,0-1.8-1.6"/><polygon class="cls-2" points="173 59 173 60.7 167.8 60.7 167.8 53.2 172.5 53.2 172.5 52.3 167.8 52.3 167.8 45.8 172.6 45.8 172.6 47.6 173 47.6 173 45 164.4 45 164.4 45.3 165.9 45.3 165.9 61.2 164.4 61.2 164.4 61.6 173.3 61.6 173.3 59 173 59"/><path class="cls-2" d="M113.4,61.2h0l-6.4-17-6.3,17H98.9v.4h4.5v-.4h-1.7l2.2-6.1h5.3l2.2,6.1h-.8v.4h4.3v-.4Zm-9.2-6.9,2.4-6.5,2.4,6.5Z"/><polygon class="cls-2" points="136.2 45 131.7 45 131.7 45.4 133.7 45.4 133.7 58.3 120.6 44.6 120.6 61.2 119.1 61.2 119.1 61.6 123.6 61.6 123.6 61.2 121.7 61.2 121.7 48.3 134.8 61.9 134.8 45.4 136.2 45.4 136.2 45"/><polygon class="cls-2" points="158.4 45 153.9 45 153.9 45.4 155.9 45.4 155.9 58.3 142.8 44.6 142.8 61.2 141.3 61.2 141.3 61.6 145.8 61.6 145.8 61.2 143.9 61.2 143.9 48.3 157 61.9 157 45.4 158.4 45.4 158.4 45"/><polygon class="cls-2" points="191.9 61.2 186.6 52.5 191.3 45.5 192.9 45.5 192.9 45.1 188.3 45.1 188.3 45.5 190.1 45.5 186.1 51.6 182.3 45.4 183.7 45.4 183.7 45 178.8 45 178.8 45.4 180.2 45.4 185 53.3 179.8 61.2 178.2 61.2 178.2 61.6 182.6 61.6 182.6 61.2 181 61.2 185.5 54.2 189.7 61.2 188.7 61.2 188.7 61.6 193.4 61.6 193.4 61.2 191.9 61.2"/><polygon class="cls-1" points="31.5 21.8 33.2 21.8 33.2 21.4 28.8 21.4 28.8 21.8 30.5 21.8 25.5 29.9 20.8 21.8 21.9 21.8 21.9 21.4 17.5 21.4 17.5 21.8 19 21.8 24.3 31 24.3 37.6 22.9 37.6 22.9 38 28.2 38 28.2 37.6 26.1 37.6 26.1 30.3 31.5 21.8"/><path class="cls-1" d="M12.9,38h3.6v-.1a7.88,7.88,0,0,1-4.8-2.6L5.3,28.6l6.8-6.8H14v-.4H9.6v.4h1.6L3.7,29.3V21.8H5.3v-.4H0v.4H1.9V37.7H.4v.4H5.7v-.4h-2V29.5L11,37.3a3.7,3.7,0,0,0,1.9.7"/><polygon class="cls-1" points="55.8 21.4 55.8 24 56.2 24 56.2 22.4 61.8 22.4 61.8 37.6 60.3 37.6 60.3 38 65.6 38 65.6 37.6 63.6 37.6 63.6 22.4 68.8 22.4 68.8 24 69.2 24 69.2 21.4 55.8 21.4"/><polygon class="cls-1" points="102 21.4 102 24 102.3 24 102.3 22.4 107.9 22.4 107.9 37.6 106.5 37.6 106.5 38 111.8 38 111.8 37.6 109.7 37.6 109.7 22.4 114.9 22.4 114.9 24 115.3 24 115.3 21.4 102 21.4"/><polygon class="cls-1" points="250.9 21.4 250.9 24 251.3 24 251.3 22.4 256.9 22.4 256.9 37.6 255.4 37.6 255.4 38 260.7 38 260.7 37.6 258.7 37.6 258.7 22.4 263.9 22.4 263.9 24 264.3 24 264.3 21.4 250.9 21.4"/><polygon class="cls-1" points="158.4 21.4 158.4 21.8 160.3 21.8 156.2 35.1 151.6 21.4 151.2 21.4 146.1 35.3 142.4 21.8 144.1 21.8 144.1 21.4 138.4 21.4 138.4 21.8 140.3 21.8 145.2 38 145.9 38 150.8 25.1 155.4 38 156.2 38 161.6 21.8 163.1 21.8 163.1 21.4 158.4 21.4"/><polygon class="cls-1" points="224.2 37.6 224.2 21.8 225.9 21.8 225.9 21.4 220.6 21.4 220.6 21.8 222.4 21.8 222.4 28.4 212.8 28.4 212.8 21.8 214.4 21.8 214.4 21.4 209.1 21.4 209.1 21.8 211 21.8 211 37.6 209.6 37.6 209.6 38 214.9 38 214.9 37.6 212.8 37.6 212.8 29.3 222.4 29.3 222.4 37.6 221 37.6 221 38 226.3 38 226.3 37.6 224.2 37.6"/><polygon class="cls-1" points="175.7 35.4 175.7 37.2 170.5 37.2 170.5 29.6 175.2 29.6 175.2 28.8 170.5 28.8 170.5 22.2 175.3 22.2 175.3 24 175.7 24 175.7 21.4 167.1 21.4 167.1 21.8 168.6 21.8 168.6 37.6 167.1 37.6 167.1 38 176.1 38 176.1 35.4 175.7 35.4"/><polygon class="cls-1" points="277.6 35.4 277.6 37.2 272.4 37.2 272.4 29.6 277.2 29.6 277.2 28.8 272.4 28.8 272.4 22.2 277.3 22.2 277.3 24 277.6 24 277.6 21.4 269 21.4 269 21.8 270.6 21.8 270.6 37.6 269 37.6 269 38 278 38 278 35.4 277.6 35.4"/><polygon class="cls-1" points="292.9 35.4 292.9 37.1 286.5 37.1 286.5 21.8 288.2 21.8 288.2 21.4 282.9 21.4 282.9 21.8 284.7 21.8 284.7 37.6 283.3 37.6 283.3 38 293.2 38 293.2 35.4 292.9 35.4"/><path class="cls-1" d="M194.8,38h3.1v-.1a7.29,7.29,0,0,1-4.7-2.5l-3.9-4.9h0c2.7-1,2.7-4.6,2.7-4.6,0-4.8-5.5-4.5-5.5-4.5h-5.1v.4h1.4V37.6h-1.4V38h5.3v-.4h-2V30.9h2.9l4.1,5.3a4.63,4.63,0,0,0,3.1,1.8m-4.5-11.8c0,2-.7,3.7-2.6,3.9h-3V22.2h1.8a3.67,3.67,0,0,1,3.8,4"/><path class="cls-1" d="M127.6,21a8.7,8.7,0,1,0,8.7,8.7h0a8.84,8.84,0,0,0-8.7-8.7h0m0,16.9c-3.8,0-6.9-3.7-6.9-8.2s3.1-8.2,6.9-8.2,6.9,3.7,6.9,8.2-3.1,8.2-6.9,8.2"/><path class="cls-1" d="M239.1,21a8.7,8.7,0,1,0,8.7,8.7h0a8.77,8.77,0,0,0-8.7-8.7h0m0,16.9c-3.8,0-6.9-3.7-6.9-8.2s3.1-8.2,6.9-8.2,6.9,3.7,6.9,8.2-3,8.2-6.9,8.2"/><path class="cls-1" d="M43.8,21a8.7,8.7,0,1,0,8.7,8.7h0A8.84,8.84,0,0,0,43.8,21h0m0,16.9c-3.8,0-7-3.7-7-8.2s3.1-8.2,7-8.2,6.9,3.7,6.9,8.2-3,8.2-6.9,8.2"/><path class="cls-1" d="M81.2,21a8.7,8.7,0,1,0,8.7,8.7h0A8.84,8.84,0,0,0,81.2,21h0m0,16.9c-3.8,0-6.9-3.7-6.9-8.2s3.1-8.2,6.9-8.2,6.9,3.7,6.9,8.2-3.1,8.2-6.9,8.2"/></g></svg>