<svg xmlns="http://www.w3.org/2000/svg" viewBox="0 0 76.02 32.43" width="76.02" height="32.43"><defs><style>.cls-1{fill:#ffe100;}.cls-2{fill:#202e3a;}</style></defs><title>lightup_title</title><rect class="cls-1" y="8.42" width="76.02" height="7.73"/><rect class="cls-1" y="26.43" width="76.02" height="6"/><path class="cls-2" d="M6.5,2.42v11H3.91v-11H.44V.11H10V2.42Z"/><path class="cls-2" d="M20.77,12a5.27,5.27,0,0,1-1.58,1.09,5.17,5.17,0,0,1-2,.36,5.19,5.19,0,0,1-2-.36,5.38,5.38,0,0,1-1.7-1.19,3.53,3.53,0,0,1-1-1.91,20.05,20.05,0,0,1-.2-3.28,19,19,0,0,1,.21-3.29,3.53,3.53,0,0,1,1-1.92A5.43,5.43,0,0,1,15.19.36a5.17,5.17,0,0,1,2-.36,5.21,5.21,0,0,1,2,.36,5.43,5.43,0,0,1,1.68,1.18,3.68,3.68,0,0,1,1,1.94,19.1,19.1,0,0,1,.21,3.27,20.05,20.05,0,0,1-.2,3.28A3.85,3.85,0,0,1,20.77,12ZM18.85,3a2.09,2.09,0,0,0-1.66-.71,2.2,2.2,0,0,0-1.72.75A2.15,2.15,0,0,0,15,4.15a18.24,18.24,0,0,0-.12,2.6A20.16,20.16,0,0,0,15,9.36a2.54,2.54,0,0,0,.63,1.24,2,2,0,0,0,1.57.58,1.93,1.93,0,0,0,1.54-.57,2.72,2.72,0,0,0,.63-1.31,15.1,15.1,0,0,0,.14-2.55,16.43,16.43,0,0,0-.13-2.6A2.41,2.41,0,0,0,18.85,3Z"/><path class="cls-2" d="M33.56,12.13a4.08,4.08,0,0,1-1.53.94,5.82,5.82,0,0,1-2,.33H25.27V.11h4.79a5.88,5.88,0,0,1,2,.31,4.33,4.33,0,0,1,1.66,1.07,3.63,3.63,0,0,1,1,1.78,11.53,11.53,0,0,1,.23,2.59V7.54a12.37,12.37,0,0,1-.23,2.67A3.88,3.88,0,0,1,33.56,12.13Zm-1.8-8.89A2.1,2.1,0,0,0,31,2.63a2.71,2.71,0,0,0-1.13-.21h-2v8.67h2a2.18,2.18,0,0,0,1.78-.63,2.74,2.74,0,0,0,.61-1.36,19.36,19.36,0,0,0,.1-2.4,17.91,17.91,0,0,0-.1-2.31A2.48,2.48,0,0,0,31.76,3.24Z"/><path class="cls-2" d="M45.59,13.4,44.8,11H40.09l-.8,2.37h-2.7L41.41.11h2L48.29,13.4ZM42.49,4,40.82,8.85h3.29Z"/><path class="cls-2" d="M54.61,8V13.4H52V8l-4-7.84h2.81l2.48,5.35L55.78.11H58.6Z"/><path class="cls-2" d="M61,4V.11h2.29V4Z"/><path class="cls-2" d="M70.44,13.49a8.56,8.56,0,0,1-2.73-.39,5.39,5.39,0,0,1-2.11-1.36l1.68-1.68a3.39,3.39,0,0,0,1.4.86,6,6,0,0,0,1.8.26c1.57,0,2.35-.55,2.35-1.64a1.37,1.37,0,0,0-.3-1,2.16,2.16,0,0,0-.58-.4,2.39,2.39,0,0,0-.7-.17l-1.61-.23A4.45,4.45,0,0,1,67,6.59,3.47,3.47,0,0,1,66.12,4a3.74,3.74,0,0,1,1.24-2.91A4.88,4.88,0,0,1,70.74,0a7.54,7.54,0,0,1,2.42.35A5.15,5.15,0,0,1,75,1.55L73.39,3.17a3,3,0,0,0-1.26-.72,5.36,5.36,0,0,0-1.46-.2,2.24,2.24,0,0,0-1.53.47,1.53,1.53,0,0,0-.52,1.21,1.62,1.62,0,0,0,.08.52,1.6,1.6,0,0,0,.42.53,2.05,2.05,0,0,0,1.12.42l1.57.23a4.43,4.43,0,0,1,2.37.88,3.33,3.33,0,0,1,.94,1.34,5,5,0,0,1,.24,1.62A3.56,3.56,0,0,1,74,12.42,5.64,5.64,0,0,1,70.44,13.49Z"/><path class="cls-2" d="M.87,29.09V21.51H2.35v6.26H5.78v1.32Z"/><path class="cls-2" d="M7.61,22.84A.82.82,0,0,1,7,22.59.85.85,0,0,1,6.74,22a.89.89,0,0,1,.87-.86.84.84,0,0,1,.62.25.86.86,0,0,1,.25.61.89.89,0,0,1-.25.62A.81.81,0,0,1,7.61,22.84Zm-.69,6.25V23.53H8.31v5.56Z"/><path class="cls-2" d="M11.73,31.17A3.61,3.61,0,0,1,10.61,31a2.32,2.32,0,0,1-.89-.57l.86-.87a1.52,1.52,0,0,0,1.09.42,1,1,0,0,0,.84-.32,1.26,1.26,0,0,0,.27-.82v-.57a1.57,1.57,0,0,1-.58.43,2,2,0,0,1-.73.13,1.73,1.73,0,0,1-1.26-.43,1.77,1.77,0,0,1-.52-.91,6.74,6.74,0,0,1-.1-1.35,6.77,6.77,0,0,1,.1-1.34,1.8,1.8,0,0,1,.52-.92,1.75,1.75,0,0,1,1.27-.42,1.87,1.87,0,0,1,.75.13,1.75,1.75,0,0,1,.6.45v-.52h1.34v5.34a2.22,2.22,0,0,1-.67,1.65A2.42,2.42,0,0,1,11.73,31.17Zm.14-6.45a.73.73,0,0,0-.73.38A2.52,2.52,0,0,0,11,26.16a1.93,1.93,0,0,0,.23,1.16.79.79,0,0,0,.67.28.71.71,0,0,0,.73-.38,2.53,2.53,0,0,0,.18-1.06,2.48,2.48,0,0,0-.18-1.05A.72.72,0,0,0,11.87,24.72Z"/><path class="cls-2" d="M18.85,29.09V25.7a1,1,0,0,0-.26-.74.93.93,0,0,0-.64-.24.88.88,0,0,0-.63.24.91.91,0,0,0-.26.74v3.39H15.67V21.51h1.39v2.54a1.78,1.78,0,0,1,1.32-.57,1.72,1.72,0,0,1,1.38.55,2.22,2.22,0,0,1,.47,1.47v3.59Z"/><path class="cls-2" d="M23.47,29.09a1.5,1.5,0,0,1-1.2-.46,1.66,1.66,0,0,1-.4-1.13V24.75h-.59V23.7h.59V22.07h1.38V23.7h1v1.05h-1v2.67c0,.33.16.5.48.5h.5v1.17Z"/><path class="cls-2" d="M25,26.69V25.4h3.27v1.29Z"/><path class="cls-2" d="M32.93,29.09v-.51a1.81,1.81,0,0,1-1.38.56,2.17,2.17,0,0,1-.74-.12,1.84,1.84,0,0,1-.61-.4,1.57,1.57,0,0,1-.39-.66,2.67,2.67,0,0,1-.13-.88V23.54h1.38v3.35a1,1,0,0,0,.26.77,1,1,0,0,0,1.31,0,1,1,0,0,0,.27-.77V23.54h1.38v5.55Z"/><path class="cls-2" d="M39.85,28.64a1.79,1.79,0,0,1-1.35.5,2.07,2.07,0,0,1-.75-.12,1.54,1.54,0,0,1-.59-.43v2.53H35.78V23.54h1.34v.52a1.79,1.79,0,0,1,1.38-.58,1.69,1.69,0,0,1,1.24.39,2,2,0,0,1,.53.88,5.91,5.91,0,0,1,.15,1.56,8.83,8.83,0,0,1-.1,1.39A1.63,1.63,0,0,1,39.85,28.64ZM38.1,24.72a.73.73,0,0,0-.75.4,3,3,0,0,0-.19,1.19,3,3,0,0,0,.18,1.2.75.75,0,0,0,.76.39.73.73,0,0,0,.75-.4A3.06,3.06,0,0,0,39,26.31a3,3,0,0,0-.18-1.19A.73.73,0,0,0,38.1,24.72Z"/><path class="cls-2" d="M46.73,29.14a2.9,2.9,0,0,1-1.12-.21,3.06,3.06,0,0,1-1-.67,2,2,0,0,1-.57-1.09,10.69,10.69,0,0,1-.12-1.87,10.9,10.9,0,0,1,.12-1.88,2,2,0,0,1,.58-1.09,3,3,0,0,1,1-.67,2.88,2.88,0,0,1,1.13-.21,2.75,2.75,0,0,1,1.17.22,3.21,3.21,0,0,1,.93.65l-1,1a2.15,2.15,0,0,0-.52-.41,1.28,1.28,0,0,0-.6-.12,1.33,1.33,0,0,0-.54.1,1.15,1.15,0,0,0-.42.31,1.27,1.27,0,0,0-.27.65,9.68,9.68,0,0,0-.08,1.47,9.32,9.32,0,0,0,.08,1.47,1.39,1.39,0,0,0,.35.73,1.1,1.1,0,0,0,.88.33,1.16,1.16,0,0,0,.6-.13,1.92,1.92,0,0,0,.52-.41l1,1a3.46,3.46,0,0,1-.93.66A2.91,2.91,0,0,1,46.73,29.14Z"/><path class="cls-2" d="M54.6,28.31a2.87,2.87,0,0,1-.91.63,3,3,0,0,1-1.13.2,3.09,3.09,0,0,1-1.14-.2,3.12,3.12,0,0,1-1-.68,2,2,0,0,1-.58-1.09,12,12,0,0,1-.11-1.87,10.9,10.9,0,0,1,.12-1.88,2,2,0,0,1,.58-1.09,3,3,0,0,1,.95-.67,2.91,2.91,0,0,1,1.15-.21,2.74,2.74,0,0,1,2.08.88,2.05,2.05,0,0,1,.59,1.1,10.92,10.92,0,0,1,.12,1.87,10.69,10.69,0,0,1-.12,1.87A2.11,2.11,0,0,1,54.6,28.31Zm-1.1-5.14a1.18,1.18,0,0,0-.94-.4,1.35,1.35,0,0,0-.55.1,1.38,1.38,0,0,0-.44.33,1.15,1.15,0,0,0-.26.61,9.84,9.84,0,0,0-.07,1.49,11.68,11.68,0,0,0,.06,1.49,1.38,1.38,0,0,0,.36.71,1.13,1.13,0,0,0,.9.33,1.09,1.09,0,0,0,.87-.33,1.46,1.46,0,0,0,.36-.75,8.24,8.24,0,0,0,.08-1.45,9.59,9.59,0,0,0-.07-1.48A1.35,1.35,0,0,0,53.5,23.17Z"/><path class="cls-2" d="M56.84,29.09V21.51h1.48v6.26h3.43v1.32Z"/><path class="cls-2" d="M67.58,28.31a3,3,0,0,1-.9.63,3.35,3.35,0,0,1-2.28,0,3.24,3.24,0,0,1-1-.68,2,2,0,0,1-.58-1.09,12,12,0,0,1-.11-1.87,10.9,10.9,0,0,1,.12-1.88,2,2,0,0,1,.58-1.09,3,3,0,0,1,1-.67,2.9,2.9,0,0,1,1.14-.21,2.83,2.83,0,0,1,1.12.21,3,3,0,0,1,1,.67,2,2,0,0,1,.58,1.1,10.92,10.92,0,0,1,.12,1.87,12,12,0,0,1-.11,1.87A2.12,2.12,0,0,1,67.58,28.31Zm-1.1-5.14a1.16,1.16,0,0,0-.94-.4,1.17,1.17,0,0,0-1,.43,1.15,1.15,0,0,0-.27.61,9.84,9.84,0,0,0-.07,1.49,11.68,11.68,0,0,0,.06,1.49,1.55,1.55,0,0,0,.36.71,1.14,1.14,0,0,0,.9.33,1.1,1.1,0,0,0,.88-.33,1.64,1.64,0,0,0,.36-.75,9.37,9.37,0,0,0,.08-1.45,9.2,9.2,0,0,0-.08-1.48A1.35,1.35,0,0,0,66.48,23.17Z"/><path class="cls-2" d="M73.84,29.09l-1.48-3H71.3v3H69.82V21.51h3a2.45,2.45,0,0,1,1.79.67,2.24,2.24,0,0,1,.66,1.65,2,2,0,0,1-.39,1.26,2.18,2.18,0,0,1-1,.73l1.69,3.27Zm-1.15-6.26H71.3v2h1.39a1.08,1.08,0,0,0,.78-.28.94.94,0,0,0,.29-.71.92.92,0,0,0-.29-.73A1.09,1.09,0,0,0,72.69,22.83Z"/></svg>