<svg xmlns="http://www.w3.org/2000/svg" viewBox="0 0 330 46.27" width="330" height="46.27"><defs><style>.cls-1{fill:#c2143d;}</style></defs><title>logo</title><path class="cls-1" d="M37.7,11.54A9.8,9.8,0,0,1,40.12,8a10.36,10.36,0,0,1,3.71-2.2,14.37,14.37,0,0,1,4.74-.75,14.55,14.55,0,0,1,4.77.75A10.36,10.36,0,0,1,57.05,8a9.92,9.92,0,0,1,2.42,3.53,12.42,12.42,0,0,1,.86,4.75A12.42,12.42,0,0,1,59.47,21a9.71,9.71,0,0,1-6.13,5.68,15.4,15.4,0,0,1-4.77.7,15.21,15.21,0,0,1-4.74-.7A9.71,9.71,0,0,1,37.7,21a12.23,12.23,0,0,1-.86-4.75,12.23,12.23,0,0,1,.86-4.75m17.94.25A9,9,0,0,0,54,8.65a6.41,6.41,0,0,0-2.43-1.83,7.54,7.54,0,0,0-3-.6,7.43,7.43,0,0,0-3,.6,6.41,6.41,0,0,0-2.43,1.83,9,9,0,0,0-1.62,3.14,15.66,15.66,0,0,0-.58,4.5,15.76,15.76,0,0,0,.58,4.5,9,9,0,0,0,1.62,3.14,6.52,6.52,0,0,0,2.43,1.83,7.43,7.43,0,0,0,3,.6,7.54,7.54,0,0,0,3-.6A6.52,6.52,0,0,0,54,23.93a9,9,0,0,0,1.62-3.14,15.76,15.76,0,0,0,.58-4.5,15.66,15.66,0,0,0-.58-4.5"/><path class="cls-1" d="M77.64,11.54A9.92,9.92,0,0,1,80.06,8a10.32,10.32,0,0,1,3.72-2.2,15.42,15.42,0,0,1,9.5,0A10.49,10.49,0,0,1,97,8a9.9,9.9,0,0,1,2.41,3.53,12.23,12.23,0,0,1,.87,4.75A12.23,12.23,0,0,1,99.41,21a9.65,9.65,0,0,1-6.13,5.68,15.31,15.31,0,0,1-4.77.7,15.19,15.19,0,0,1-4.73-.7,9.81,9.81,0,0,1-3.72-2.15A9.92,9.92,0,0,1,77.64,21a12.42,12.42,0,0,1-.86-4.75,12.42,12.42,0,0,1,.86-4.75m17.94.25A8.94,8.94,0,0,0,94,8.65a6.41,6.41,0,0,0-2.43-1.83,7.85,7.85,0,0,0-6,0,6.41,6.41,0,0,0-2.43,1.83,8.77,8.77,0,0,0-1.61,3.14,15.32,15.32,0,0,0-.58,4.5,15.41,15.41,0,0,0,.58,4.5,8.86,8.86,0,0,0,1.61,3.14,6.52,6.52,0,0,0,2.43,1.83,7.85,7.85,0,0,0,6,0A6.52,6.52,0,0,0,94,23.93a9,9,0,0,0,1.61-3.14,15.41,15.41,0,0,0,.58-4.5,15.32,15.32,0,0,0-.58-4.5"/><path class="cls-1" d="M127.87,11.54A9.9,9.9,0,0,1,130.28,8,10.41,10.41,0,0,1,134,5.81a15.42,15.42,0,0,1,9.5,0A10.41,10.41,0,0,1,147.22,8a9.9,9.9,0,0,1,2.41,3.53,12.23,12.23,0,0,1,.87,4.75,12.23,12.23,0,0,1-.87,4.75,9.65,9.65,0,0,1-6.13,5.68,15.31,15.31,0,0,1-4.77.7,15.19,15.19,0,0,1-4.73-.7A9.65,9.65,0,0,1,127.87,21a12.23,12.23,0,0,1-.87-4.75,12.23,12.23,0,0,1,.87-4.75m17.93.25a8.77,8.77,0,0,0-1.61-3.14,6.41,6.41,0,0,0-2.43-1.83,7.85,7.85,0,0,0-6,0,6.41,6.41,0,0,0-2.43,1.83,8.94,8.94,0,0,0-1.61,3.14,15.32,15.32,0,0,0-.58,4.5,15.41,15.41,0,0,0,.58,4.5,9,9,0,0,0,1.61,3.14,6.52,6.52,0,0,0,2.43,1.83,7.85,7.85,0,0,0,6,0,6.52,6.52,0,0,0,2.43-1.83,8.86,8.86,0,0,0,1.61-3.14,15.41,15.41,0,0,0,.58-4.5,15.32,15.32,0,0,0-.58-4.5"/><path class="cls-1" d="M157,24.54l-1.18-3.83-1.38-4.47c-.48-1.56-.94-3-1.38-4.45s-.84-2.68-1.21-3.81-.65-2-.86-2.51c.28,0,.91.08,1.16.11s.75,0,1,0,.78,0,1,0,.75-.07,1-.11c.39,1.59.78,3.08,1.16,4.47s.78,2.8,1.21,4.23.88,2.94,1.37,4.52,1,3.36,1.68,5.34h.07c.18-.56.45-1.34.78-2.33s.7-2.09,1.1-3.29.81-2.46,1.26-3.75.84-2.54,1.22-3.72.71-2.26,1-3.23.5-1.72.63-2.24a4.62,4.62,0,0,0,1,.15,16.43,16.43,0,0,0,2.1-.15c.15.56.37,1.33.68,2.32s.64,2.07,1,3.28.78,2.45,1.21,3.74.84,2.54,1.23,3.73.76,2.28,1.09,3.24.58,1.71.76,2.25h.07c.14-.45.37-1.17.67-2.14l1-3.3c.38-1.22.78-2.51,1.19-3.86s.79-2.63,1.16-3.85.69-2.32,1-3.28.48-1.67.58-2.13l.55.11a3.8,3.8,0,0,0,1.1,0l.55-.11c-.21.48-.51,1.27-.91,2.38s-.84,2.37-1.33,3.8-1,2.92-1.54,4.51-1,3.1-1.54,4.53-.93,2.72-1.31,3.86-.68,2-.87,2.46c-.33,0-1.75-.06-2.13-.06A9.08,9.08,0,0,0,173,27q-1.41-4.35-2.79-8.76t-3-9.11h-.06c-.17.48-.39,1.12-.68,1.93l-.94,2.71c-.34,1-.71,2.08-1.11,3.23s-.8,2.31-1.19,3.48-.79,2.32-1.16,3.45l-1,3.07c-.33,0-1.18-.06-1.58-.06s-1.38,0-1.71.06c-.17-.52-.43-1.34-.77-2.47"/><path class="cls-1" d="M244.16,9.53c-.06-1.33-.2-2.68-.26-4.06.27,0,.92.08,1.17.11s.88,0,1.13,0,.88,0,1.13,0,.9-.07,1.18-.11c-.06,1.38-.21,2.73-.26,4.06s-.12,2.68-.12,4.06V19c0,1.38.07,2.74.12,4.07s.2,2.66.26,4c-.48,0-1.76-.06-2.31-.06s-1.82,0-2.3.06c.06-1.29.2-2.61.26-4s.11-2.69.11-4.07V16.16l-2.63,0-3.28,0-3.28,0-2.63,0V19c0,1.38.06,2.74.12,4.07s.19,2.66.25,4c-.47,0-1.76-.06-2.3-.06s-1.82,0-2.3.06c.06-1.29.2-2.61.25-4s.12-2.69.12-4.07v-5.4c0-1.38-.07-2.73-.12-4.06s-.19-2.68-.25-4.06c.27,0,.92.08,1.17.11s.88,0,1.13,0,.88,0,1.13,0,.9-.07,1.17-.11c-.06,1.38-.2,2.73-.25,4.06s-.12,2.68-.12,4.06v1.1l2.63.06c1.06,0,2.15,0,3.28,0s2.22,0,3.28,0l2.63-.06v-1.1c0-1.38-.06-2.73-.11-4.06"/><path class="cls-1" d="M254.17,11.54A9.9,9.9,0,0,1,256.58,8a10.49,10.49,0,0,1,3.72-2.2,15.42,15.42,0,0,1,9.5,0A10.49,10.49,0,0,1,273.52,8a9.9,9.9,0,0,1,2.41,3.53,12.23,12.23,0,0,1,.87,4.75,12.23,12.23,0,0,1-.87,4.75,9.65,9.65,0,0,1-6.13,5.68,15.31,15.31,0,0,1-4.77.7,15.19,15.19,0,0,1-4.73-.7A9.65,9.65,0,0,1,254.17,21a12.23,12.23,0,0,1-.87-4.75,12.23,12.23,0,0,1,.87-4.75m17.93.25a8.77,8.77,0,0,0-1.61-3.14,6.41,6.41,0,0,0-2.43-1.83,7.59,7.59,0,0,0-3-.6,7.5,7.5,0,0,0-3,.6,6.41,6.41,0,0,0-2.43,1.83A8.77,8.77,0,0,0,258,11.79a15.32,15.32,0,0,0-.58,4.5,15.41,15.41,0,0,0,.58,4.5,8.86,8.86,0,0,0,1.61,3.14A6.52,6.52,0,0,0,262,25.76a7.5,7.5,0,0,0,3,.6,7.59,7.59,0,0,0,3-.6,6.52,6.52,0,0,0,2.43-1.83,8.86,8.86,0,0,0,1.61-3.14,15.41,15.41,0,0,0,.58-4.5,15.32,15.32,0,0,0-.58-4.5"/><path class="cls-1" d="M318,9.53c0-1.33-.2-2.68-.26-4.06.27,0,1,.08,1.26.11s.75,0,1,0,.76,0,1,0,1.07-.07,1.34-.11c-.06,1.38-.21,2.73-.26,4.06s-.12,2.68-.12,4.06c0,2.64,0,4.92.05,6.85s.07,3.67.1,5.2c1.48,0,2.17,0,3.53-.05a39.84,39.84,0,0,0,4.39-.36,3.83,3.83,0,0,0-.16.94A3,3,0,0,0,330,27c-1,0-1.93-.06-2.89-.06h-5.78c-.93,0-2.63,0-3.63.06.06-1.29.21-2.61.26-4s.11-2.69.11-4.07v-5.4c0-1.38-.06-2.73-.11-4.06"/><path class="cls-1" d="M25,16.65l-1.35-2.26c-.49-.83-1-1.69-1.56-2.6L20.51,9.18C20,8.36,19.58,7.61,19.18,7s-.7-1.16-.91-1.49c.29,0,.92.08,1.2.11s.89,0,1.18,0,.91,0,1.19,0,.92-.07,1.21-.11c.94,1.82,1.9,3.6,2.87,5.36s2,3.59,3.09,5.49c.48-.75,1-1.58,1.51-2.48s1-1.82,1.57-2.76,1-1.89,1.5-2.84.93-1.87,1.35-2.77a6.94,6.94,0,0,0,1.22.15,7,7,0,0,0,1.23-.15q-1.52,2.28-2.7,4.14c-.8,1.23-1.5,2.35-2.1,3.35s-1.14,1.91-1.6,2.72-.86,1.53-1.19,2.18c0,.77,0,1.6,0,2.47s0,1.75.05,2.59.05,1.63.08,2.35.07,1.31.11,1.74c-.48,0-1.67-.06-2.21-.06s-1.72,0-2.2.06a38.1,38.1,0,0,0,.22-4c0-1.54,0-3.17,0-4.86L25,16.65"/><path class="cls-1" d="M76.72,5.47l-4,.11c-1.31,0-2.66,0-4,0s-2.73,0-4,0l-4-.11a4.06,4.06,0,0,1,.16,1,3.56,3.56,0,0,1-.16,1c.44-.06.94-.11,1.49-.15s1.13-.08,1.73-.11,1.19-.06,1.79-.07h1c.09,2.15.14,4.32.14,6.49V19q0,2.09-.12,4.08c-.08,1.34-.16,2.66-.26,4q1.08-.06,2.31-.06c.81,0,1.58,0,2.3.06-.09-1.29-.18-2.61-.26-4s-.11-2.69-.11-4.08V13.59c0-2.17,0-4.34.14-6.49h1c.59,0,1.19,0,1.78.07s1.17.06,1.73.11,1,.09,1.49.15a3.48,3.48,0,0,1-.16-1,4.12,4.12,0,0,1,.16-1"/><path class="cls-1" d="M127.12,5.47l-4,.11c-1.32,0-2.67,0-4,0s-2.73,0-4,0l-4-.11a4.65,4.65,0,0,1,.16,1,4,4,0,0,1-.16,1c.44-.06.93-.11,1.49-.15s1.13-.08,1.72-.11,1.2-.06,1.79-.07h1c.1,2.15.14,4.32.14,6.49v1.52L121,11.37c0-1.42.06-2.85.12-4.27h1c.6,0,1.19,0,1.79.07s1.17.06,1.72.11,1.05.09,1.49.15a3.83,3.83,0,0,1-.15-1,4.56,4.56,0,0,1,.15-1"/><path class="cls-1" d="M121,19V13.49L117.1,17.2V19c0,1.39,0,2.75-.11,4.08s-.17,2.66-.26,4c.72,0,1.49-.06,2.3-.06s1.58,0,2.31.06c-.1-1.29-.18-2.61-.26-4S121,20.37,121,19"/><path class="cls-1" d="M197.32,25.71a1.78,1.78,0,0,1,.08-.48,14.8,14.8,0,0,1-1.77.23c-.68.06-1.41.1-2.17.13s-1.54.05-2.34.05h-1.48c0-.4,0-1-.07-1.76s0-1.76,0-2.95v-3.1c0-.34,0-.62,0-.84s0-.42,0-.6h.82l2,0c.72,0,1.44,0,2.16.08s1.36.09,1.9.16a5.09,5.09,0,0,1-.09-1,5.15,5.15,0,0,1,.09-1l-1.46.11-1.68.09c-.6,0-1.27.06-2,.08-.55,0-1.14,0-1.78,0,0-.39,0-1,0-1.75s0-1.57,0-2.38,0-1.47.07-2.08.09-1.24.12-1.91c.71,0,1.34,0,1.89,0l2,.11,1.76.12c.55,0,1.16.09,1.83.13a5,5,0,0,1,0-1.88l-2.79.11c-.92,0-1.85,0-2.79,0s-1.88,0-2.81,0h0l-3.52-.11c.09,1.33.18,2.67.25,4s.12,2.7.12,4.08V19c0,1.38,0,2.74-.12,4.07s-.16,2.66-.25,4c1.44,0,2.87-.06,4.28-.06h5c.93,0,1.87,0,2.81.06a2.58,2.58,0,0,1-.1-.81c0-.15,0-.31,0-.49"/><path class="cls-1" d="M217.63,25.73c-.48-.57-1-1.19-1.54-1.87l-1.69-2.13-1.69-2.13c-.55-.68-1-1.3-1.48-1.87s-1-1.28-1.32-1.69l.46-.14a8.3,8.3,0,0,0,2.08-1.1A6.3,6.3,0,0,0,214.1,13a4.78,4.78,0,0,0,.68-2.59,4.89,4.89,0,0,0-.52-2.35,4.23,4.23,0,0,0-1.42-1.52,6,6,0,0,0-2.08-.83,11.94,11.94,0,0,0-2.51-.25,17.6,17.6,0,0,0-1.79.08c-.54,0-1.1.07-1.67.07-.85,0-1.69,0-2.51,0l-2.69-.11c.1,1.38.18,2.73.26,4.06s.12,2.68.12,4.06V19c0,1.38,0,2.74-.12,4.07s-.16,2.66-.26,4c.73-.05,1.49-.07,2.31-.07s1.55,0,2.27.06h0l-.09-1.46c0-.83-.08-1.65-.11-2.5-.05-1.33-.08-2.69-.08-4.07V16.7h1.19q1,1,2.22,2.52c.8,1,1.59,2,2.36,3s1.48,1.94,2.12,2.82l1.43,2h0l.64,0,.73,0h2.82a11.9,11.9,0,0,1,1.34.07c-.29-.3-.68-.73-1.16-1.29M204.88,15.5a6.62,6.62,0,0,1-1-.12V13.59q0-1.69.06-3.39c.05-1.13.09-2.27.13-3.42.34,0,.74-.07,1.22-.1s1.09,0,1.82,0a8.58,8.58,0,0,1,1.66.17,4.41,4.41,0,0,1,1.57.64,3.7,3.7,0,0,1,1.18,1.27,4.12,4.12,0,0,1,.45,2,4.26,4.26,0,0,1-.58,2.33A4.56,4.56,0,0,1,210,14.55a6.15,6.15,0,0,1-1.93.77,10.49,10.49,0,0,1-2,.22c-.41,0-.79,0-1.14,0"/><path class="cls-1" d="M7.83,14.39c1.69,1.9,4.17,4.7,5.89,6.68S17.2,25,19,27c-.32,0-1.12-.06-1.43-.06H15.26c-.28,0-1.14,0-1.43.06q-1.12-1.28-2.49-2.94c-.91-1.11-1.8-2.18-2.67-3.22L6.32,18.06c-.7-.83-1.22-1.4-1.55-1.74-.17-.17-.29-.25-.38-.25s-.16.06-.16.19v-.94c0,.16.07.25.19.25s.23-.1.44-.29Q6,14.35,7.17,13.15c.8-.79,1.61-1.62,2.43-2.48S11.22,8.94,12,8.05s1.56-1.74,2.29-2.58l.66.11a4.44,4.44,0,0,0,.63,0,6.28,6.28,0,0,0,.75,0l.75-.11c-.73.63-1.55,1.37-2.47,2.22s-1.85,1.74-2.78,2.64S10,12.11,9.18,13c-.67.68-1,1-1.35,1.41"/><path class="cls-1" d="M4.23,16.26V19c0,1.38,0,2.74.12,4.07s.17,2.66.26,4Q3.53,26.95,2.3,27C1.49,27,.72,27,0,27c.09-1.29.18-2.61.26-4S.38,20.37.38,19v-5.4c0-1.38,0-2.73-.12-4.06S.09,6.85,0,5.47l1.18.11c.37,0,.75,0,1.12,0s.76,0,1.13,0l1.18-.11c-.09,1.38-.18,2.73-.26,4.06s-.12,2.68-.12,4.06v2.67Z"/><polygon class="cls-1" points="130.63 0 127.12 3.38 127.12 5.47 130.63 2.09 130.63 0"/><path class="cls-1" d="M293.51,5.47l-4.05.11c-1.32,0-2.66,0-4,0s-2.73,0-4.05,0l-4.05-.11a4.06,4.06,0,0,1,.16,1,3.56,3.56,0,0,1-.16,1c.44-.06.94-.11,1.49-.15s1.13-.08,1.73-.11,1.19-.06,1.79-.07h1c.09,2.15.14,4.32.14,6.49V19q0,2.09-.12,4.08c-.08,1.34-.16,2.66-.26,4q1.08-.06,2.31-.06c.81,0,1.58,0,2.3.06-.09-1.29-.18-2.61-.26-4s-.11-2.69-.11-4.08V13.59c0-2.17,0-4.34.14-6.49h1c.59,0,1.19,0,1.78.07s1.17.06,1.73.11,1.05.09,1.49.15a3.48,3.48,0,0,1-.16-1,4.12,4.12,0,0,1,.16-1"/><path class="cls-1" d="M311.21,25.71a1.78,1.78,0,0,1,.08-.48,15,15,0,0,1-1.78.23c-.68.06-1.4.1-2.16.13s-1.54.05-2.34.05h-1.48c0-.4,0-1-.07-1.76s0-1.76,0-2.95v-3.1c0-.34,0-.62,0-.84s0-.42,0-.6h.83l2,0c.73,0,1.45,0,2.17.08s1.35.09,1.9.16a4.38,4.38,0,0,1-.1-1,4.43,4.43,0,0,1,.1-1l-1.46.11-1.68.09c-.61,0-1.27.06-2,.08-.54,0-1.13,0-1.78,0,0-.39,0-1,0-1.75s0-1.57,0-2.38,0-1.47.07-2.08.08-1.24.12-1.91c.71,0,1.34,0,1.88,0,.74,0,1.41.07,2,.11l1.75.12c.56,0,1.17.09,1.84.13a5,5,0,0,1-.1-.94,5,5,0,0,1,.1-.94l-2.79.11c-.92,0-1.86,0-2.79,0s-1.88,0-2.81,0h0l-3.52-.11c.09,1.33.18,2.67.25,4s.12,2.7.12,4.08V19c0,1.38,0,2.74-.12,4.07s-.16,2.66-.25,4c1.44,0,2.86-.06,4.27-.06h5c.93,0,1.86,0,2.81.06a2.58,2.58,0,0,1-.1-.81c0-.15,0-.31,0-.49"/><path class="cls-1" d="M127.67,38.29H130V37.17h-2.35v-.78h-2.84v.78h-2.76v1.12h2.77v.78h-2.77V40.2h1.09l-.35,2.74s-.08.7-1.12.64v1h1.47l.25-.28v2h6.26V41.06h-3.88V40.2h4.28V39.07h-2.4Zm-.3,6.49H125.7v-.56h1.67Zm0-1.67h-1.68v-.56h1.68Z"/><path class="cls-1" d="M108,45c-.06.11-.1.18-.62.18h-1.06v1.12h2.53c.29,0,1-.06,1.19-.56L111.45,43h-2.38l-1,2"/><rect class="cls-1" x="196.07" y="36.39" width="10.69" height="1.88"/><polygon class="cls-1" points="120.14 37.15 115 37.15 115 36.28 112 36.28 112 37.15 106.87 37.15 106.87 38.27 120.14 38.27 120.14 37.15"/><path class="cls-1" d="M119,45l-1-2h-2.38l1.37,2.74c.23.5.9.56,1.19.56h2.53V45.15h-1.06c-.51,0-.55-.07-.61-.18"/><path class="cls-1" d="M119.07,38.78H107.93v3.58h4.2v3.91h2.74V42.36h4.2Zm-2.57,2.35h-6v-1h6Z"/><path class="cls-1" d="M135.6,39.8l.8-2.63h-6v9.1h2.42V41.54c.65,0,.83.36.83.36s.38,2,.38,2.08.1.4-.22.52l-.64.27v.78h1.89c1.59.05,1.19-1.26,1.19-1.26s-.37-2.11-.53-2.95-.69-.84-.69-.84a1.11,1.11,0,0,0,.53-.7m-2-.42a.39.39,0,0,1-.2.35,1,1,0,0,1-.52.1V38.15h.86Z"/><path class="cls-1" d="M138.87,36.39l-1.37,5.68h2.89l1-3.81h5.9l-.5,2h-4.51l-.22.87,4.31.81-.71,2.8c0,.12-.11.43-.68.41h-4v1.12h5.44a2.31,2.31,0,0,0,2.49-1.54l1.72-7.14-1.2-1.2Z"/><path class="cls-1" d="M195.3,41.5h5.15c-.2.59-1,2.6-1.35,3.25a.89.89,0,0,1-.75.4h-1.51v1.12h4.59c.51,0,.77-.14.92-.54l1.76-4.23h3.44V39.58H195.3Z"/><path class="cls-1" d="M209.92,44.31a1.21,1.21,0,0,1-1.09.84H208v1.12h3.67a.85.85,0,0,0,.92-.62l2.14-9.26h-3.08s-1.41,6.77-1.72,7.92"/><path class="cls-1" d="M223.59,43.08h-1.12c0,.68-.12,1.31-.64,1.31h-3v-8H216v9.88h5.47c2.56,0,2.15-3.19,2.15-3.19"/><path class="cls-1" d="M192.52,44.75c-.33-.65-1.18-2.75-1.39-3.34h-2.82l1.8,4.32c.15.4.41.54.92.54h2.82V45.15h-.58a.89.89,0,0,1-.75-.4"/><rect class="cls-1" x="166.47" y="39.67" width="10.13" height="2.05"/><path class="cls-1" d="M152.81,36.39v5.68h2.88V38.26h5.52l-1.63,6.48c0,.12-.12.43-.68.41h-4v1.12h5.43a2.31,2.31,0,0,0,2.49-1.54l1.73-7.14-1.2-1.2Z"/><path class="cls-1" d="M179.15,44.75a.93.93,0,0,1-.76.4h-.58v1.12h2.82c.52,0,.78-.14.92-.54l1.8-4.32h-2.81c-.21.59-1.06,2.69-1.39,3.34"/><polygon class="cls-1" points="192.56 37.87 187.44 37.87 187.44 36.28 184.22 36.28 184.22 37.87 179.1 37.87 179.1 39.75 184.22 39.75 184.22 46.27 187.44 46.27 187.44 39.75 192.56 39.75 192.56 37.87"/></svg>